<svg width="375" height="375" viewBox="0 0 375 375" fill="none" xmlns="http://www.w3.org/2000/svg">
<path d="M375 286.8H0V286.987H375V286.8Z" fill="#EBEBEB"/>
<path d="M316.92 291.908H297.442V292.095H316.92V291.908Z" fill="#EBEBEB"/>
<path d="M236.745 293.257H230.228V293.445H236.745V293.257Z" fill="#EBEBEB"/>
<path d="M337.425 298.868H323.033V299.055H337.425V298.868Z" fill="#EBEBEB"/>
<path d="M51.5327 293.167H39.3452V293.355H51.5327V293.167Z" fill="#EBEBEB"/>
<path d="M83.1674 293.167H55.5449V293.355H83.1674V293.167Z" fill="#EBEBEB"/>
<path d="M221.505 296.333H151.245V296.52H221.505V296.333Z" fill="#EBEBEB"/>
<path d="M177.75 253.35H32.9327C31.7982 253.348 30.7109 252.896 29.9094 252.093C29.1079 251.29 28.6577 250.202 28.6577 249.068V45.495C28.6676 44.367 29.1221 43.2885 29.9225 42.4937C30.723 41.6988 31.8047 41.2519 32.9327 41.25H177.75C178.886 41.25 179.975 41.7012 180.778 42.5043C181.582 43.3074 182.033 44.3967 182.033 45.5325V249.068C182.033 250.203 181.582 251.293 180.778 252.096C179.975 252.899 178.886 253.35 177.75 253.35ZM32.9327 41.4C31.848 41.402 30.8083 41.8343 30.042 42.602C29.2756 43.3698 28.8452 44.4102 28.8452 45.495V249.068C28.8452 250.152 29.2756 251.193 30.042 251.96C30.8083 252.728 31.848 253.161 32.9327 253.162H177.75C178.836 253.161 179.876 252.728 180.644 251.961C181.411 251.193 181.843 250.153 181.845 249.068V45.495C181.843 44.4095 181.411 43.3691 180.644 42.6016C179.876 41.8341 178.836 41.402 177.75 41.4H32.9327Z" fill="#EBEBEB"/>
<path d="M339.982 253.35H195.157C194.022 253.348 192.934 252.896 192.132 252.094C191.329 251.291 190.877 250.203 190.875 249.068V45.495C190.887 44.3663 191.343 43.2878 192.145 42.4932C192.946 41.6986 194.029 41.2519 195.157 41.25H339.982C341.109 41.2539 342.189 41.7017 342.988 42.4963C343.787 43.2909 344.24 44.3683 344.25 45.495V249.068C344.25 250.201 343.801 251.288 343.001 252.09C342.201 252.893 341.116 253.346 339.982 253.35ZM195.157 41.4C194.072 41.402 193.032 41.8341 192.264 42.6016C191.497 43.3691 191.064 44.4095 191.062 45.495V249.068C191.064 250.153 191.497 251.193 192.264 251.961C193.032 252.728 194.072 253.161 195.157 253.162H339.982C341.068 253.161 342.108 252.728 342.876 251.961C343.643 251.193 344.076 250.153 344.077 249.068V45.495C344.076 44.4095 343.643 43.3691 342.876 42.6016C342.108 41.8341 341.068 41.402 339.982 41.4H195.157Z" fill="#EBEBEB"/>
<path d="M164.393 94.8151C163.223 92.2426 160.883 90.2551 159.143 90.3751C158.85 90.3903 158.567 90.484 158.322 90.6463C158.078 90.8086 157.882 91.0335 157.755 91.2976C154.59 88.0951 150.953 86.1226 147.945 86.3401C147.257 86.3676 146.583 86.5473 145.972 86.8664C145.361 87.1854 144.829 87.6357 144.413 88.1851C141.015 83.3476 136.695 79.9351 133.553 79.9351C131.768 79.9351 130.658 81.0451 130.268 82.9351C126.788 79.6801 123.21 77.6851 120.323 77.6851C115.718 77.6851 114.225 82.7551 116.108 89.8801C115.358 91.2226 111.728 93.0976 111.878 95.3476H164.58C164.528 95.1376 164.46 94.9801 164.393 94.8151Z" fill="#FAFAFA"/>
<path d="M249.36 64.1024C248.453 62.0999 246.638 60.5549 245.288 60.6524C245.06 60.664 244.84 60.7362 244.651 60.8615C244.461 60.9868 244.308 61.1606 244.208 61.3649C241.755 58.8749 238.958 57.3449 236.595 57.5174C236.059 57.538 235.534 57.6771 235.058 57.9248C234.582 58.1725 234.167 58.5226 233.843 58.9499C231.21 55.1999 227.843 52.5224 225.405 52.5224C224.025 52.5224 223.155 53.3849 222.855 54.8249C220.148 52.2974 217.365 50.7524 215.13 50.7524C211.553 50.7524 210.39 54.6899 211.853 60.2249C211.268 61.2674 208.448 62.7224 208.568 64.4699H249.518L249.36 64.1024Z" fill="#FAFAFA"/>
<path d="M90.7502 75.0752C90.4915 75.1024 90.2471 75.2072 90.049 75.3759C89.8509 75.5445 89.7084 75.7691 89.6402 76.0202C86.9327 72.7427 83.8802 70.7252 81.3902 70.9502C80.7953 70.9994 80.2226 71.1986 79.7256 71.5291C79.2285 71.8596 78.8233 72.3107 78.5477 72.8402C75.6152 67.8977 71.9477 64.3952 69.3677 64.3952C67.8677 64.3952 67.0277 65.5277 66.7652 67.3952C63.7652 64.0727 60.7652 62.0327 58.4252 62.0327C55.4852 62.0327 54.1877 65.1677 54.5927 69.9902C53.1752 68.5877 51.7877 67.7402 50.6552 67.7402C49.0802 67.7402 48.3452 69.3227 48.4727 71.8127C48.3382 71.7975 48.2023 71.7975 48.0677 71.8127C45.6677 72.2252 44.7527 75.4352 45.9002 79.1027H95.0252C93.9452 76.7702 92.0927 74.9552 90.7502 75.0752Z" fill="#FAFAFA"/>
<path d="M293.595 129.547C293.298 129.579 293.017 129.699 292.789 129.891C292.56 130.084 292.394 130.34 292.312 130.627C289.215 126.877 285.72 124.56 282.907 124.815C282.227 124.874 281.572 125.104 281.003 125.482C280.434 125.861 279.97 126.377 279.652 126.982C276.292 121.32 272.092 117.307 269.152 117.307C267.472 117.307 266.467 118.605 266.152 120.772C262.755 116.962 259.32 114.63 256.597 114.63C253.23 114.63 251.745 118.222 252.21 123.742C250.59 122.137 248.992 121.192 247.71 121.192C245.91 121.192 245.07 123.007 245.212 125.857C245.057 125.858 244.901 125.871 244.747 125.895C242.002 126.375 240.952 130.05 242.272 134.257H298.522C297.255 131.482 295.132 129.412 293.595 129.547Z" fill="#FAFAFA"/>
<path d="M75.7501 101.497C74.4001 101.602 73.0726 101.782 71.7451 101.985C70.4176 102.187 69.1126 102.45 67.8226 102.772C66.8401 103.027 65.8726 103.297 64.9126 103.65C63.6933 102.764 62.3835 102.01 61.0051 101.4C60.1384 101.014 59.2522 100.674 58.3501 100.38C57.4222 100.069 56.4753 99.8188 55.5151 99.6299L57.7651 101.01C58.5151 101.467 59.2126 101.917 59.9026 102.382C60.5926 102.847 61.2601 103.32 61.9126 103.792C62.5651 104.265 63.1501 104.76 63.7126 105.255L64.3801 105.847L65.3701 105.457C66.4126 105.052 67.6201 104.707 68.7826 104.37C69.9451 104.032 71.1976 103.71 72.4276 103.387C74.8801 102.727 77.3851 102.112 79.8526 101.31C78.4828 101.299 77.1133 101.362 75.7501 101.497Z" fill="#EBEBEB"/>
<path d="M115.26 110.678C113.91 110.79 112.582 110.97 111.255 111.165C109.927 111.36 108.622 111.638 107.332 111.96C106.348 112.201 105.376 112.494 104.422 112.838C103.203 111.952 101.893 111.197 100.515 110.588C99.6599 110.213 98.7749 109.838 97.8599 109.56C96.932 109.249 95.985 108.999 95.0249 108.81L97.2749 110.183C98.0249 110.648 98.7224 111.098 99.4124 111.555C100.102 112.013 100.77 112.493 101.422 112.965C102.075 113.438 102.66 113.933 103.222 114.465L103.89 115.058L104.88 114.668C105.922 114.255 107.13 113.918 108.292 113.573C109.455 113.228 110.707 112.913 111.937 112.598C114.39 111.93 116.895 111.315 119.362 110.52C117.993 110.503 116.624 110.556 115.26 110.678Z" fill="#EBEBEB"/>
<path d="M308.85 105.585C307.275 105.713 305.715 105.923 304.162 106.155C302.61 106.388 301.08 106.703 299.565 107.085C298.416 107.369 297.282 107.712 296.167 108.113C294.739 107.084 293.205 106.209 291.592 105.503C290.58 105.06 289.552 104.655 288.48 104.303C287.39 103.936 286.278 103.638 285.15 103.41L287.752 105.023C288.6 105.563 289.44 106.088 290.25 106.635C291.06 107.183 291.84 107.73 292.605 108.278C293.37 108.825 294.052 109.418 294.712 110.003L295.462 110.693L296.625 110.235C297.84 109.755 299.227 109.35 300.615 108.953C302.002 108.555 303.45 108.203 304.89 107.813C307.762 107.063 310.695 106.313 313.59 105.383C312.007 105.368 310.425 105.436 308.85 105.585Z" fill="#EBEBEB"/>
<path d="M248.647 91.905C247.072 92.0325 245.512 92.2425 243.96 92.475C242.407 92.7075 240.877 93.0225 239.362 93.405C238.213 93.6856 237.079 94.026 235.965 94.425C234.531 93.4015 232.996 92.5294 231.382 91.8225C230.367 91.3678 229.328 90.9672 228.27 90.6225C227.182 90.2545 226.073 89.9564 224.947 89.73L227.55 91.3425C228.397 91.8825 229.237 92.4075 230.047 92.9475C230.857 93.4875 231.637 94.05 232.402 94.5975C233.167 95.145 233.85 95.7375 234.51 96.315L235.26 97.0125L236.422 96.555C237.637 96.075 239.025 95.67 240.412 95.2725C241.8 94.875 243.24 94.5225 244.687 94.1325C247.56 93.3825 250.485 92.6325 253.38 91.695C251.805 91.6725 250.222 91.77 248.647 91.905Z" fill="#EBEBEB"/>
<path d="M293.557 87.7875C292.597 87.8625 291.652 87.99 290.707 88.1325C289.762 88.275 288.832 88.4625 287.91 88.695C287.212 88.875 286.522 89.07 285.847 89.3175C284.975 88.698 284.043 88.1678 283.065 87.735C282.446 87.4514 281.813 87.201 281.167 86.985C280.507 86.7611 279.833 86.5783 279.15 86.4375L280.732 87.42C281.242 87.75 281.76 88.0725 282.232 88.4025C282.705 88.7325 283.2 89.07 283.665 89.4C284.13 89.73 284.542 90.09 284.947 90.45L285.42 90.87L286.132 90.5925C286.882 90.3 287.707 90.0525 288.555 89.8425C289.402 89.6325 290.272 89.37 291.15 89.145C292.897 88.6725 294.682 88.2375 296.4 87.645C295.451 87.6451 294.502 87.6927 293.557 87.7875Z" fill="#EBEBEB"/>
<path d="M212.25 80.7077C211.298 80.7902 210.353 80.9177 209.408 81.0602C208.463 81.2027 207.533 81.3902 206.61 81.6227C205.913 81.8027 205.223 81.9977 204.54 82.2452C203.669 81.6241 202.737 81.0939 201.758 80.6627C201.141 80.3791 200.511 80.1288 199.868 79.9127C199.207 79.6898 198.533 79.507 197.85 79.3652L199.425 80.3477C199.943 80.6777 200.453 80.9927 200.925 81.3227C201.398 81.6527 201.893 81.9902 202.358 82.3277C202.823 82.6652 203.235 83.0177 203.633 83.3702L204.113 83.7977L204.818 83.5202C205.568 83.2277 206.4 82.9802 207.248 82.7702C208.095 82.5602 208.965 82.2977 209.843 82.0727C211.59 81.6002 213.368 81.1652 215.13 80.5727C214.178 80.5727 213.218 80.6327 212.25 80.7077Z" fill="#EBEBEB"/>
<path d="M326.775 84.2848C326.1 84.3448 325.44 84.4273 324.78 84.5323C324.12 84.6373 323.468 84.7648 322.823 84.9298C322.33 85.0461 321.844 85.1914 321.368 85.3648C320.758 84.9275 320.105 84.5555 319.418 84.2548C318.99 84.0673 318.555 83.8873 318.098 83.7373C317.633 83.5842 317.16 83.459 316.68 83.3623L317.79 84.0448C318.15 84.2773 318.54 84.5023 318.855 84.7348C319.17 84.9673 319.53 85.1998 319.853 85.4323C320.175 85.6648 320.468 85.9198 320.753 86.1823L321.083 86.4748L321.578 86.2798C322.095 86.0773 322.688 85.9048 323.28 85.7398C323.873 85.5748 324.488 85.4098 325.103 85.2523C326.325 84.9223 327.57 84.6148 328.808 84.2173C328.129 84.2056 327.451 84.2282 326.775 84.2848Z" fill="#EBEBEB"/>
<path d="M273.667 64.4249C272.992 64.4849 272.332 64.5749 271.672 64.6724C271.012 64.7699 270.36 64.9049 269.715 65.0699C269.223 65.1897 268.737 65.3349 268.26 65.5049C267.652 65.0693 267.001 64.6973 266.317 64.3949C265.882 64.2074 265.447 64.0349 264.99 63.8849C264.525 63.7293 264.052 63.6016 263.572 63.5024L264.682 64.1924C265.042 64.4174 265.432 64.6424 265.747 64.8749C266.062 65.1074 266.422 65.3399 266.745 65.5799C267.067 65.8199 267.36 66.0599 267.645 66.3299L267.975 66.6299L268.47 66.4349C268.987 66.2324 269.58 66.0524 270.172 65.8874C270.765 65.7224 271.38 65.5574 271.995 65.3999C273.217 65.0699 274.462 64.7624 275.7 64.3649C275.022 64.3508 274.343 64.3708 273.667 64.4249Z" fill="#EBEBEB"/>
<path d="M183.225 275.243H168.36V286.8H183.225V275.243Z" fill="#E6E6E6"/>
<path d="M176.55 193.68L222.75 279.75C222.829 279.899 222.863 280.068 222.848 280.236C222.832 280.403 222.768 280.563 222.662 280.695C222.557 280.826 222.415 280.924 222.255 280.976C222.095 281.028 221.922 281.032 221.76 280.988L212.01 278.22C211.882 278.183 211.747 278.176 211.616 278.2C211.485 278.223 211.362 278.278 211.255 278.358C211.149 278.438 211.063 278.542 211.004 278.661C210.945 278.78 210.914 278.912 210.915 279.045V282.795C210.915 282.958 210.87 283.117 210.783 283.255C210.697 283.393 210.573 283.504 210.426 283.575C210.28 283.645 210.116 283.673 209.954 283.654C209.793 283.636 209.639 283.572 209.512 283.47L200.31 276.143C200.147 276.011 199.942 275.944 199.734 275.954C199.525 275.964 199.327 276.049 199.177 276.195L194.64 280.508C194.512 280.629 194.35 280.709 194.176 280.736C194.002 280.763 193.823 280.735 193.665 280.658L183.48 275.603C183.305 275.515 183.105 275.491 182.914 275.533C182.723 275.575 182.552 275.682 182.43 275.835L177.015 282.623C176.938 282.719 176.842 282.798 176.732 282.854C176.623 282.91 176.503 282.941 176.38 282.947C176.257 282.953 176.134 282.932 176.02 282.887C175.906 282.841 175.803 282.771 175.717 282.683L169.282 275.933C169.119 275.77 168.898 275.678 168.667 275.678C168.437 275.678 168.216 275.77 168.052 275.933L161.602 282.383C161.453 282.531 161.256 282.62 161.046 282.633C160.837 282.647 160.629 282.585 160.462 282.458L152.317 276.09C152.17 275.98 151.991 275.921 151.807 275.921C151.624 275.921 151.445 275.98 151.297 276.09L145.11 280.5C144.985 280.588 144.839 280.642 144.686 280.655C144.534 280.668 144.381 280.64 144.243 280.574C144.104 280.509 143.986 280.407 143.9 280.281C143.814 280.155 143.763 280.008 143.752 279.855L143.415 274.8C143.406 274.657 143.362 274.519 143.286 274.398C143.21 274.277 143.105 274.176 142.981 274.106C142.856 274.036 142.716 273.998 142.573 273.996C142.43 273.994 142.289 274.028 142.162 274.095L130.372 280.268C130.21 280.352 130.025 280.382 129.844 280.354C129.663 280.326 129.495 280.241 129.366 280.112C129.236 279.982 129.152 279.815 129.123 279.634C129.095 279.453 129.126 279.268 129.21 279.105L175.035 193.68C175.109 193.544 175.218 193.43 175.352 193.351C175.485 193.272 175.637 193.23 175.792 193.23C175.947 193.23 176.1 193.272 176.233 193.351C176.366 193.43 176.476 193.544 176.55 193.68Z" fill="#F0F0F0"/>
<path d="M174.968 196.425L142.785 248.828C142.373 249.495 143.063 250.275 143.888 250.065L149.55 248.655C149.686 248.615 149.829 248.605 149.969 248.626C150.109 248.648 150.243 248.701 150.36 248.78C150.477 248.86 150.575 248.965 150.646 249.087C150.717 249.21 150.761 249.347 150.773 249.488V250.77C150.793 250.941 150.857 251.104 150.96 251.242C151.063 251.38 151.2 251.489 151.358 251.557C151.516 251.625 151.689 251.651 151.86 251.631C152.031 251.612 152.194 251.548 152.333 251.445L158.1 247.44C158.287 247.313 158.509 247.25 158.735 247.259C158.961 247.269 159.177 247.35 159.353 247.493L162.195 249.855C162.345 249.975 162.525 250.051 162.715 250.076C162.906 250.101 163.099 250.074 163.275 249.998L170.078 247.05C170.272 246.964 170.489 246.939 170.698 246.979C170.907 247.019 171.099 247.123 171.248 247.275L174.683 251.025C174.869 251.219 175.122 251.333 175.391 251.344C175.659 251.355 175.921 251.263 176.123 251.085L180.195 247.335C180.386 247.174 180.628 247.085 180.878 247.085C181.127 247.085 181.369 247.174 181.56 247.335L185.7 250.95C185.874 251.097 186.092 251.182 186.319 251.194C186.546 251.207 186.771 251.145 186.96 251.018L192.323 247.358C192.492 247.249 192.688 247.192 192.889 247.192C193.09 247.192 193.286 247.249 193.455 247.358L197.205 249.653C197.34 249.742 197.495 249.797 197.657 249.812C197.818 249.826 197.981 249.8 198.13 249.736C198.279 249.672 198.409 249.572 198.51 249.445C198.61 249.318 198.677 249.167 198.705 249.008L198.87 246.9C198.894 246.749 198.954 246.605 199.045 246.482C199.135 246.358 199.254 246.258 199.391 246.189C199.528 246.12 199.679 246.085 199.833 246.086C199.986 246.087 200.137 246.124 200.273 246.195L207.173 249.353C208.02 249.735 208.92 248.918 208.463 248.175L176.685 196.425C176.592 196.283 176.464 196.166 176.314 196.085C176.164 196.004 175.997 195.962 175.826 195.962C175.656 195.962 175.488 196.004 175.338 196.085C175.189 196.166 175.061 196.283 174.968 196.425Z" fill="#E6E6E6"/>
<path d="M174.937 187.44L154.425 225.142C154.05 225.825 154.785 226.56 155.595 226.335L158.137 225.622C158.275 225.574 158.421 225.557 158.566 225.574C158.711 225.591 158.85 225.641 158.972 225.72C159.095 225.799 159.197 225.905 159.272 226.029C159.347 226.154 159.393 226.295 159.405 226.44C159.425 226.618 159.494 226.786 159.602 226.928C159.711 227.07 159.856 227.18 160.022 227.246C160.188 227.313 160.369 227.332 160.546 227.304C160.722 227.276 160.888 227.2 161.025 227.085L163.927 224.835C164.123 224.685 164.365 224.608 164.612 224.617C164.858 224.627 165.094 224.723 165.277 224.887L166.687 226.207C166.846 226.348 167.042 226.439 167.251 226.468C167.461 226.497 167.674 226.464 167.865 226.372L171.75 224.467C171.959 224.366 172.195 224.335 172.423 224.381C172.651 224.428 172.857 224.547 173.01 224.722L174.795 226.935C174.89 227.043 175.006 227.132 175.135 227.194C175.265 227.256 175.407 227.291 175.551 227.297C175.695 227.302 175.838 227.278 175.973 227.226C176.107 227.175 176.23 227.096 176.332 226.995L178.402 224.85C178.603 224.654 178.872 224.544 179.152 224.544C179.433 224.544 179.702 224.654 179.902 224.85L182.07 226.995C182.252 227.166 182.489 227.267 182.739 227.28C182.988 227.294 183.235 227.22 183.435 227.07L186.435 224.767C186.617 224.638 186.834 224.568 187.057 224.568C187.281 224.568 187.498 224.638 187.68 224.767L189.315 225.9C189.45 226.001 189.61 226.066 189.777 226.088C189.945 226.11 190.115 226.089 190.273 226.027C190.43 225.964 190.568 225.863 190.675 225.731C190.782 225.6 190.853 225.444 190.882 225.277L190.927 224.677C190.953 224.52 191.017 224.372 191.113 224.245C191.209 224.118 191.334 224.016 191.478 223.949C191.621 223.881 191.78 223.849 191.939 223.856C192.097 223.862 192.252 223.908 192.39 223.987L195.487 225.585C196.312 226.012 197.265 225.232 196.852 224.467L176.737 187.507C176.653 187.345 176.527 187.207 176.373 187.109C176.218 187.011 176.04 186.956 175.857 186.949C175.674 186.942 175.493 186.984 175.331 187.07C175.169 187.156 175.034 187.284 174.937 187.44Z" fill="#F0F0F0"/>
<path d="M316.597 286.072C315.982 282.15 313.245 279.112 310.462 279.322C309.952 279.365 309.456 279.511 309.005 279.752C308.553 279.993 308.156 280.324 307.837 280.725C304.387 275.842 299.587 272.835 294.78 273.165C292.374 273.334 290.1 274.33 288.345 275.985C285.3 268.605 280.095 263.37 275.197 263.37C272.392 263.37 270.127 265.065 268.627 267.87C264.69 262.92 260.017 259.875 255.48 259.875C248.25 259.875 243.48 267.608 243.097 278.468C241.275 280.515 234.69 283.372 233.857 286.8H316.687L316.597 286.072Z" fill="#F0F0F0"/>
<path d="M117.187 280.2C116.713 280.26 116.259 280.426 115.857 280.685C115.456 280.945 115.119 281.292 114.87 281.7C112.027 276.45 107.985 273.202 103.815 273.555C101.61 273.798 99.5856 274.887 98.1674 276.592C95.7674 268.657 91.4174 263.032 87.1799 263.032C84.7499 263.032 82.7399 264.855 81.3674 267.892C78.1124 262.552 74.1599 259.275 70.2374 259.275C65.3699 259.275 61.6649 264.307 59.9324 272.025C58.2824 269.775 56.3999 268.44 54.5249 268.44C51.9224 268.44 49.9199 270.99 48.8924 274.98C48.6587 274.981 48.4255 275.001 48.1949 275.04C44.0249 275.707 40.9049 280.86 40.9874 286.755H122.212C121.627 282.915 119.467 280.005 117.187 280.2Z" fill="#E6E6E6"/>
<path d="M104.835 255.232L105.03 243.21L109.14 227.01H105.293L105.585 208.822H93.6226L92.4526 241.62L89.5576 242.347L91.0426 259.732L91.8001 259.792L90.8326 286.8H104.325L104.535 273.885L106.208 255.007L104.835 255.232Z" fill="#F0F0F0"/>
<path d="M62.4598 208.432C55.3723 205.245 52.4998 196.65 60.2698 189.75C68.0398 182.85 55.5223 180.667 65.5198 167.415C75.5173 154.162 89.0848 163.545 92.3548 151.732C95.6248 139.92 108.06 135.345 114.442 149.415C120.825 163.485 120.495 151.38 128.512 165.165C136.53 178.95 115.912 184.792 126.06 191.01C136.207 197.227 148.102 208.057 137.647 214.26C121.897 223.59 135.247 221.542 126.397 231.442C116.212 242.775 111.997 225.39 94.3423 233.407C76.6873 241.425 63.4423 236.527 69.5923 222.772C74.3773 212.047 70.0048 211.822 62.4598 208.432Z" fill="#E6E6E6"/>
<path d="M289.643 260.925L289.425 251.07L284.865 237.795H289.133L288.81 222.893H302.078L303.375 249.773L306.578 250.365L304.935 264.615L304.095 264.668L305.168 286.8H290.205L289.973 276.218L288.113 260.745L289.643 260.925Z" fill="#FAFAFA"/>
<path d="M330.9 238.118C337.65 235.328 340.418 227.813 333 221.805C325.583 215.798 337.538 213.863 327.99 202.305C318.443 190.748 305.49 198.915 302.333 188.595C299.175 178.275 287.333 174.263 281.213 186.57C275.093 198.878 275.423 188.25 267.75 200.25C260.078 212.25 279.795 217.418 270.098 222.855C260.4 228.293 249 237.75 259.02 243.195C274.08 251.348 261.315 249.563 269.813 258.195C279.563 268.103 283.583 252.9 300.465 259.913C317.348 266.925 330.015 262.643 324.105 250.613C319.5 241.275 323.685 241.08 330.9 238.118Z" fill="#F0F0F0"/>
<path d="M187.5 320.67C267.812 320.67 332.918 316.869 332.918 312.18C332.918 307.491 267.812 303.69 187.5 303.69C107.188 303.69 42.0825 307.491 42.0825 312.18C42.0825 316.869 107.188 320.67 187.5 320.67Z" fill="#F5F5F5"/>
<path d="M176.378 136.733C175.298 140.85 174.128 144.915 172.83 148.973C172.2 151.003 171.535 153.03 170.835 155.055C170.145 157.08 169.418 159.098 168.585 161.16L168.383 161.663C168.293 161.888 168.195 162.083 168.098 162.285C167.901 162.659 167.686 163.022 167.453 163.373C167.037 163.986 166.568 164.561 166.05 165.09C165.151 166 164.175 166.831 163.133 167.573C161.251 168.892 159.261 170.051 157.185 171.038C153.228 172.928 149.106 174.452 144.87 175.59L143.288 171.465C145.065 170.483 146.91 169.478 148.673 168.42C150.435 167.363 152.198 166.313 153.863 165.188C155.484 164.134 157.03 162.969 158.49 161.7C159.124 161.152 159.706 160.547 160.23 159.893C160.425 159.641 160.601 159.376 160.755 159.098C160.806 159.007 160.849 158.911 160.883 158.813C160.886 158.778 160.886 158.743 160.883 158.708V158.648L160.935 158.468C162.105 154.598 163.185 150.503 164.303 146.468C165.42 142.433 166.553 138.368 167.723 134.348L176.378 136.733Z" fill="#FFB573"/>
<path d="M178.335 132.36C180.93 137.61 172.627 154.763 172.627 154.763L162 150.548C162.339 145.342 163.348 140.203 165 135.255C167.693 127.785 175.455 126.548 178.335 132.36Z" fill="#407BFF"/>
<path opacity="0.2" d="M178.597 133.028C176.085 132.188 173.535 133.455 171.405 138.278C169.275 143.1 168 150.81 168.09 153L172.59 154.793C172.59 154.793 180.39 138.855 178.597 133.028Z" fill="black"/>
<path d="M144.338 171.203L140.213 171.3C139.701 171.314 139.198 171.433 138.735 171.649C138.271 171.865 137.856 172.174 137.516 172.556C137.176 172.938 136.918 173.386 136.757 173.872C136.597 174.357 136.537 174.871 136.583 175.38C136.647 176.033 136.882 176.657 137.264 177.19C137.645 177.724 138.16 178.148 138.756 178.421C139.353 178.693 140.01 178.804 140.663 178.743C141.316 178.682 141.942 178.451 142.478 178.073C143.664 177.254 144.749 176.297 145.71 175.223L144.338 171.203Z" fill="#FFB573"/>
<path d="M143.558 171.195C144.347 172.537 144.976 173.966 145.433 175.455C145.462 175.544 145.521 175.62 145.601 175.669C145.68 175.719 145.775 175.738 145.868 175.725C147.152 175.556 148.391 175.136 149.513 174.487C149.563 174.444 149.6 174.387 149.62 174.323C149.64 174.26 149.641 174.192 149.625 174.127C149.258 172.545 147.713 169.185 146.843 169.17C146.13 169.17 144.398 170.205 143.67 170.67C143.627 170.696 143.59 170.73 143.56 170.771C143.531 170.812 143.51 170.859 143.5 170.908C143.489 170.957 143.489 171.008 143.499 171.057C143.509 171.107 143.529 171.154 143.558 171.195Z" fill="#263238"/>
<path d="M170.632 129.09C170.632 129.09 165.705 148.26 176.632 181.515L209.047 177.578C208.665 172.575 202.59 148.68 204.547 124.658C200.88 124.401 197.2 124.384 193.53 124.605C188.909 124.895 184.309 125.454 179.752 126.278C176.644 126.977 173.595 127.917 170.632 129.09Z" fill="#407BFF"/>
<path d="M185.145 142.635C185.133 142.632 185.122 142.627 185.112 142.62C185.102 142.613 185.093 142.604 185.087 142.593C185.081 142.583 185.077 142.571 185.075 142.559C185.073 142.547 185.074 142.534 185.078 142.523C186.03 139.125 184.515 137.535 182.213 135.113C180.026 132.942 178.157 130.472 176.663 127.778C172.868 120.765 176.565 117.96 179.01 116.108C179.485 115.769 179.934 115.396 180.353 114.99C180.361 114.981 180.371 114.974 180.382 114.969C180.393 114.964 180.405 114.961 180.417 114.961C180.43 114.961 180.442 114.963 180.453 114.967C180.464 114.971 180.475 114.978 180.484 114.986C180.493 114.995 180.5 115.005 180.505 115.016C180.51 115.027 180.512 115.039 180.513 115.051C180.513 115.063 180.511 115.075 180.507 115.087C180.502 115.098 180.496 115.109 180.488 115.118C180.065 115.531 179.611 115.912 179.13 116.258C176.73 118.073 173.13 120.818 176.828 127.688C178.303 130.374 180.154 132.836 182.325 135C184.673 137.46 186.218 139.088 185.235 142.583C185.227 142.599 185.214 142.613 185.198 142.622C185.182 142.631 185.163 142.636 185.145 142.635Z" fill="white"/>
<path d="M190.282 109.252C189.952 113.79 190.072 122.002 193.53 124.605C189.445 126.998 185.788 130.055 182.707 133.65C181.095 131.077 179.79 128.565 179.752 126.277C184.552 124.492 183.982 120.84 182.7 117.502L190.282 109.252Z" fill="#FFB573"/>
<path opacity="0.2" d="M187.192 112.62L182.692 117.495C183.009 118.273 183.259 119.076 183.442 119.895C185.295 119.393 187.642 117 187.597 114.998C187.611 114.187 187.474 113.381 187.192 112.62Z" fill="black"/>
<path d="M174.21 95.5802C169.89 98.0627 172.988 108.188 175.148 108.968C179.198 110.423 179.573 92.5052 174.21 95.5802Z" fill="#263238"/>
<path d="M189.997 102.518C190.357 108.563 190.875 112.088 188.22 115.538C184.222 120.728 176.475 118.875 174.315 113.055C172.372 107.805 172.11 98.8054 177.697 95.7079C178.925 95.0142 180.31 94.6468 181.72 94.6407C183.13 94.6346 184.518 94.99 185.752 95.673C186.986 96.356 188.024 97.3438 188.767 98.5421C189.51 99.7404 189.934 101.109 189.997 102.518Z" fill="#FFB573"/>
<path d="M194.295 97.2077C194.873 100.718 192.045 110.61 189.48 110.708C186.915 110.805 185.528 105.398 186.195 100.298C183.773 99.8852 168.99 101.798 170.865 95.5052C172.598 89.7002 181.245 92.4227 187.148 88.5977C187.598 90.9002 185.033 92.9777 186.308 92.6027C191.558 91.0502 193.733 94.3577 197.4 92.6852C197.241 93.619 196.881 94.5072 196.345 95.2881C195.809 96.0691 195.11 96.724 194.295 97.2077Z" fill="#263238"/>
<path d="M193.5 108.803C193.182 109.492 192.73 110.112 192.172 110.627C191.613 111.142 190.958 111.541 190.245 111.803C188.34 112.47 187.245 110.798 187.673 108.93C188.055 107.25 189.503 104.873 191.468 105.015C193.433 105.158 194.295 107.108 193.5 108.803Z" fill="#FFB573"/>
<path d="M176.64 181.5C176.64 181.5 165.097 219.818 163.74 238.395C162.33 257.723 157.627 306.585 157.627 306.585L162.367 308.01C162.367 308.01 178.47 263.01 179.1 244.005C179.512 231.563 201.802 178.448 201.802 178.448L176.64 181.5Z" fill="#FFB573"/>
<path d="M157.192 302.595L163.432 305.445C163.543 305.494 163.633 305.58 163.688 305.688C163.743 305.796 163.758 305.919 163.732 306.038L162.577 311.475C162.548 311.607 162.489 311.731 162.405 311.837C162.321 311.943 162.214 312.029 162.092 312.088C161.97 312.148 161.837 312.178 161.701 312.179C161.566 312.179 161.432 312.149 161.31 312.09C159.15 311.063 158.152 310.448 155.407 309.195C153.72 308.445 147.705 305.895 145.372 304.83C143.04 303.765 143.79 301.328 144.84 301.553C149.55 302.565 154.2 303.135 156.135 302.528C156.484 302.421 156.86 302.445 157.192 302.595Z" fill="#263238"/>
<path d="M153.93 301.252C153.947 301.209 153.967 301.166 153.99 301.125C154.027 301.043 154.086 300.974 154.16 300.923C154.234 300.873 154.321 300.844 154.41 300.84C155.16 300.802 156.39 302.595 156.66 302.955C156.678 302.983 156.688 303.015 156.688 303.049C156.688 303.082 156.678 303.115 156.66 303.142C156.643 303.172 156.617 303.195 156.586 303.209C156.555 303.222 156.521 303.225 156.488 303.217C155.738 303.067 154.335 302.7 153.983 301.965C153.924 301.857 153.889 301.737 153.88 301.614C153.871 301.492 153.888 301.368 153.93 301.252ZM156.09 302.79C155.543 302.04 154.785 301.17 154.425 301.185C154.388 301.185 154.343 301.185 154.298 301.282C154.247 301.362 154.217 301.453 154.209 301.547C154.201 301.641 154.216 301.735 154.253 301.822C154.722 302.364 155.378 302.709 156.09 302.79Z" fill="#407BFF"/>
<path d="M155.685 300.383L155.753 300.255C155.822 300.165 155.919 300.1 156.028 300.07C156.138 300.04 156.255 300.047 156.36 300.09C156.47 300.125 156.571 300.183 156.658 300.259C156.744 300.335 156.814 300.428 156.863 300.533C157.268 301.365 156.668 303.038 156.645 303.105C156.636 303.135 156.619 303.162 156.595 303.182C156.571 303.202 156.541 303.215 156.51 303.218C156.479 303.223 156.447 303.219 156.418 303.207C156.389 303.195 156.364 303.176 156.345 303.15C155.94 302.61 155.423 301.058 155.685 300.383ZM156.435 302.633C156.666 302.006 156.707 301.326 156.555 300.675C156.526 300.614 156.486 300.559 156.436 300.514C156.385 300.469 156.326 300.435 156.263 300.413C156.098 300.36 156.053 300.413 156.038 300.45C155.82 300.75 156.083 301.943 156.435 302.64V302.633Z" fill="#407BFF"/>
<path d="M176.64 181.5C176.64 181.5 171.84 196.5 170.348 203.46C173.393 203.723 187.688 208.088 190.545 209.835C192.293 206.663 200.775 178.568 200.775 178.568L176.64 181.5Z" fill="#263238"/>
<path opacity="0.2" d="M191.648 188.873C190.763 192.225 189.6 200.49 192.105 205.868C193.223 202.695 194.685 198.165 196.103 193.71C194.648 190.695 192.293 186.42 191.648 188.873Z" fill="black"/>
<path d="M170.25 201.158C169.813 202.17 169.559 203.252 169.5 204.353C171.84 204.803 187.147 209.55 189.96 211.043C191.325 210.038 191.527 207.87 191.602 207.9C191.677 207.93 178.89 202.35 170.25 201.158Z" fill="#407BFF"/>
<path opacity="0.2" d="M170.25 201.158C169.813 202.17 169.559 203.252 169.5 204.353C171.84 204.803 187.147 209.55 189.96 211.043C191.325 210.038 191.527 207.87 191.602 207.9C191.677 207.93 178.89 202.35 170.25 201.158Z" fill="white"/>
<path d="M185.558 180.435C185.558 180.435 203.865 229.65 213 245.64C222.69 262.665 263.1 231.263 263.1 231.263L259.47 227.46C259.47 227.46 235.763 237.75 226.395 237C217.185 219.75 209.055 177.57 209.055 177.57L185.558 180.435Z" fill="#FFB573"/>
<path d="M184.965 180.503C184.965 180.503 193.567 202.68 195.69 209.453C198.472 208.178 213.412 204.953 216.757 205.05C216.712 201.42 209.055 177.578 209.055 177.578L184.965 180.503Z" fill="#263238"/>
<path d="M202.163 180.54C202.143 180.539 202.124 180.531 202.108 180.52C202.092 180.508 202.08 180.491 202.073 180.473C200.055 173.948 195.593 168.99 191.655 164.618C186.878 159.308 182.753 154.725 183.405 148.583C183.878 143.948 185.655 141.218 187.238 138.833C189.488 135.398 191.258 132.683 187.793 126.03C182.588 116.055 188.213 111.203 190.328 109.38C190.553 109.194 190.768 108.996 190.973 108.788C190.981 108.779 190.991 108.773 191.002 108.768C191.013 108.764 191.025 108.761 191.036 108.761C191.048 108.761 191.06 108.764 191.071 108.768C191.082 108.773 191.092 108.779 191.1 108.788C191.118 108.806 191.127 108.83 191.127 108.855C191.127 108.88 191.118 108.905 191.1 108.923C190.965 109.073 190.733 109.275 190.433 109.538C188.348 111.33 182.813 116.115 187.943 125.963C191.453 132.713 189.653 135.465 187.38 138.953C185.813 141.345 184.043 144.053 183.57 148.635C182.948 154.695 187.05 159.255 191.82 164.528C195.765 168.915 200.243 173.888 202.275 180.458C202.279 180.469 202.28 180.481 202.279 180.493C202.278 180.505 202.274 180.516 202.268 180.526C202.263 180.537 202.255 180.546 202.246 180.554C202.237 180.561 202.226 180.567 202.215 180.57L202.163 180.54Z" fill="white"/>
<path d="M192.18 108.833C192.142 108.963 192.075 109.082 191.985 109.183C191.896 109.285 191.784 109.364 191.66 109.417C191.535 109.47 191.4 109.495 191.265 109.489C191.13 109.484 190.998 109.448 190.878 109.386C190.758 109.323 190.653 109.234 190.572 109.126C190.49 109.018 190.434 108.893 190.406 108.761C190.379 108.628 190.381 108.492 190.413 108.36C190.445 108.228 190.505 108.106 190.59 108C190.692 107.752 190.887 107.553 191.134 107.446C191.381 107.339 191.659 107.334 191.91 107.43C192.13 107.582 192.281 107.814 192.332 108.076C192.382 108.339 192.328 108.61 192.18 108.833Z" fill="white"/>
<path d="M200.298 180.362L206.271 179.295C206.396 179.272 206.526 179.301 206.63 179.373C206.734 179.446 206.806 179.557 206.828 179.683L207.32 182.437L200.402 183.673L199.91 180.919C199.899 180.857 199.9 180.793 199.914 180.732C199.927 180.67 199.953 180.612 199.989 180.56C200.025 180.508 200.071 180.464 200.124 180.43C200.177 180.396 200.236 180.373 200.298 180.362Z" fill="white"/>
<path d="M194.76 207.323C194.878 208.417 195.19 209.481 195.683 210.465C197.933 209.715 213.608 206.288 216.788 206.198C217.485 204.653 216.593 202.665 216.668 202.658C216.743 202.65 202.83 204.12 194.76 207.323Z" fill="#407BFF"/>
<path opacity="0.2" d="M194.76 207.323C194.878 208.417 195.19 209.481 195.683 210.465C197.933 209.715 213.608 206.288 216.788 206.198C217.485 204.653 216.593 202.665 216.668 202.658C216.743 202.65 202.83 204.12 194.76 207.323Z" fill="white"/>
<path d="M263.49 232.613L258.24 228.195C258.149 228.115 258.086 228.007 258.063 227.887C258.04 227.768 258.057 227.644 258.113 227.535L260.685 222.608C260.749 222.489 260.84 222.385 260.95 222.306C261.059 222.227 261.186 222.173 261.319 222.149C261.453 222.125 261.59 222.132 261.72 222.169C261.85 222.205 261.971 222.271 262.073 222.36C263.873 223.928 264.675 224.79 266.978 226.733C268.403 227.925 273.51 231.983 275.468 233.633C277.425 235.283 276.053 237.435 275.1 236.933C270.84 234.683 266.513 232.898 264.488 232.965C264.123 232.973 263.769 232.848 263.49 232.613Z" fill="#263238"/>
<path d="M266.25 234.75L266.16 234.855C266.102 234.923 266.027 234.974 265.942 235.003C265.858 235.032 265.768 235.038 265.68 235.02C264.93 234.848 264.248 232.77 264.113 232.388C264.101 232.355 264.101 232.319 264.11 232.286C264.119 232.252 264.139 232.222 264.165 232.2C264.193 232.182 264.226 232.172 264.259 232.172C264.292 232.172 264.325 232.182 264.353 232.2C265.103 232.56 266.288 233.28 266.43 234.075C266.449 234.194 266.443 234.315 266.412 234.432C266.381 234.548 266.326 234.656 266.25 234.75ZM264.585 232.688C264.908 233.573 265.41 234.6 265.755 234.683C265.784 234.688 265.814 234.685 265.842 234.674C265.87 234.664 265.894 234.646 265.913 234.623C265.981 234.558 266.034 234.478 266.065 234.39C266.096 234.301 266.106 234.206 266.093 234.113C266.033 233.73 265.5 233.25 264.6 232.718L264.585 232.688Z" fill="#407BFF"/>
<path d="M264.337 235.14C264.313 235.182 264.28 235.218 264.24 235.245C264.151 235.318 264.04 235.358 263.925 235.358C263.81 235.358 263.699 235.318 263.61 235.245C263.515 235.183 263.433 235.101 263.371 235.006C263.309 234.91 263.268 234.802 263.25 234.69C263.077 233.775 264.105 232.327 264.15 232.26C264.169 232.235 264.194 232.215 264.223 232.203C264.252 232.191 264.284 232.188 264.315 232.192C264.344 232.197 264.372 232.21 264.396 232.228C264.419 232.246 264.438 232.27 264.45 232.298C264.697 232.935 264.75 234.57 264.337 235.14ZM264.225 232.77C263.836 233.312 263.614 233.956 263.587 234.622C263.598 234.689 263.622 234.753 263.658 234.809C263.694 234.866 263.742 234.915 263.797 234.952C263.94 235.05 264 235.005 264.022 234.952C264.315 234.75 264.375 233.535 264.225 232.77Z" fill="#407BFF"/>
<path d="M181.095 105.3C181.155 105.788 180.945 106.215 180.63 106.253C180.315 106.29 180 105.93 179.94 105.443C179.88 104.955 180.09 104.52 180.412 104.483C180.735 104.445 181.035 104.813 181.095 105.3Z" fill="#263238"/>
<path d="M175.575 105.967C175.635 106.462 175.418 106.89 175.103 106.927C174.788 106.965 174.473 106.597 174.413 106.11C174.353 105.622 174.57 105.195 174.885 105.157C175.2 105.12 175.5 105.48 175.575 105.967Z" fill="#263238"/>
<path d="M177.36 105.998C176.959 107.574 176.343 109.088 175.53 110.498C175.894 110.694 176.297 110.81 176.71 110.836C177.123 110.861 177.537 110.797 177.923 110.648L177.36 105.998Z" fill="#ED893E"/>
<path d="M179.49 111.795C179.455 111.795 179.421 111.782 179.394 111.759C179.368 111.735 179.351 111.703 179.348 111.668C179.345 111.649 179.347 111.63 179.352 111.612C179.358 111.594 179.367 111.577 179.378 111.562C179.39 111.548 179.405 111.536 179.422 111.527C179.438 111.518 179.456 111.512 179.475 111.51C180.09 111.454 180.682 111.253 181.204 110.923C181.726 110.593 182.161 110.144 182.475 109.613C182.483 109.595 182.495 109.579 182.509 109.566C182.523 109.553 182.54 109.543 182.558 109.537C182.576 109.531 182.596 109.528 182.615 109.53C182.634 109.531 182.653 109.536 182.67 109.545C182.703 109.564 182.728 109.594 182.74 109.63C182.753 109.666 182.752 109.705 182.738 109.74C182.408 110.315 181.945 110.801 181.387 111.159C180.83 111.517 180.195 111.735 179.535 111.795H179.49Z" fill="#263238"/>
<path d="M182.513 103.32C182.473 103.32 182.434 103.312 182.398 103.296C182.362 103.281 182.33 103.258 182.303 103.23C182.059 102.959 181.754 102.75 181.414 102.619C181.074 102.489 180.707 102.441 180.345 102.48C180.274 102.483 180.205 102.461 180.15 102.417C180.094 102.373 180.057 102.31 180.044 102.241C180.031 102.171 180.044 102.1 180.08 102.039C180.116 101.978 180.173 101.932 180.24 101.91C180.696 101.852 181.158 101.904 181.59 102.061C182.022 102.217 182.41 102.474 182.723 102.81C182.775 102.866 182.805 102.94 182.805 103.016C182.805 103.093 182.775 103.167 182.723 103.223C182.667 103.28 182.592 103.315 182.513 103.32Z" fill="#263238"/>
<path d="M172.89 104.37H172.792C172.72 104.344 172.661 104.292 172.627 104.223C172.594 104.154 172.588 104.075 172.612 104.003C172.752 103.565 172.995 103.167 173.32 102.842C173.644 102.517 174.042 102.275 174.48 102.135C174.517 102.125 174.555 102.122 174.593 102.128C174.631 102.133 174.668 102.146 174.701 102.165C174.734 102.185 174.762 102.211 174.785 102.242C174.808 102.273 174.824 102.308 174.832 102.345C174.851 102.42 174.839 102.498 174.8 102.564C174.76 102.63 174.697 102.678 174.622 102.698C174.268 102.805 173.946 102.998 173.685 103.26C173.423 103.521 173.23 103.843 173.122 104.198C173.103 104.244 173.071 104.285 173.03 104.316C172.989 104.346 172.941 104.365 172.89 104.37Z" fill="#263238"/>
<path d="M209.55 128.895C211.38 132.495 212.985 136.058 214.485 139.778C215.235 141.638 215.94 143.528 216.57 145.455C217.253 147.45 217.817 149.483 218.257 151.545C218.362 152.093 218.46 152.663 218.542 153.255C218.629 153.919 218.679 154.588 218.692 155.258C218.698 156.414 218.414 157.554 217.867 158.573C217.376 159.473 216.696 160.256 215.872 160.868C214.699 161.724 213.369 162.341 211.957 162.683C210.835 162.964 209.691 163.152 208.537 163.245C204.389 163.516 200.224 163.188 196.17 162.27L196.567 157.875L199.365 157.635C200.302 157.545 201.232 157.433 202.155 157.328C203.939 157.119 205.71 156.806 207.457 156.39C208.226 156.199 208.978 155.949 209.707 155.64C210.181 155.489 210.615 155.233 210.975 154.89C211.027 154.808 210.975 154.815 210.84 154.965C210.74 155.117 210.674 155.288 210.645 155.468C210.645 155.505 210.645 155.468 210.645 155.415V155.31V155.093L210.547 154.575C210.457 154.208 210.367 153.825 210.255 153.428C209.797 151.83 209.19 150.098 208.507 148.388C207.825 146.678 207.105 144.938 206.34 143.213C204.84 139.763 203.212 136.26 201.622 132.878L209.55 128.895Z" fill="#FFB573"/>
<path d="M198.75 158.948L196.223 155.693C195.907 155.29 195.513 154.956 195.064 154.712C194.615 154.467 194.12 154.317 193.611 154.271C193.102 154.224 192.588 154.283 192.102 154.442C191.616 154.601 191.168 154.859 190.785 155.198C190.3 155.638 189.938 156.198 189.737 156.821C189.535 157.445 189.501 158.111 189.637 158.752C189.772 159.393 190.074 159.987 190.511 160.476C190.948 160.964 191.506 161.329 192.128 161.535C193.491 161.998 194.903 162.303 196.335 162.443L198.75 158.948Z" fill="#FFB573"/>
<path d="M204.547 124.658C213.877 125.948 216.795 141.908 216.795 141.908L206.415 147.323C203.112 143.919 200.295 140.075 198.045 135.9C194.362 128.948 198.345 123.795 204.547 124.658Z" fill="#407BFF"/>
</svg>
