<svg width="32" height="31" viewBox="0 0 32 31" fill="none" xmlns="http://www.w3.org/2000/svg">
    <path d="M0.103819 29.7261C-0.0723607 29.3578 -0.0243079 28.9093 0.247969 28.589L21.0371 3.12306C21.2453 2.8668 21.5497 2.72266 21.87 2.72266H30.9032C31.3196 2.72266 31.688 2.9629 31.8802 3.33127C32.0563 3.69965 32.0083 4.14811 31.736 4.46843L10.9469 29.9344C10.7386 30.1906 10.4343 30.3348 10.114 30.3348H1.08082C0.664395 30.3348 0.296014 30.0945 0.103819 29.7261ZM28.6449 4.86884H22.3825L3.35513 28.1886H9.61751L28.6449 4.86884Z" fill="#005DCC"/>
    <path d="M20.5088 18.2261L28.6451 28.1883L30.6791 30.3345H30.9194C31.3358 30.3345 31.7042 30.0942 31.8964 29.7259C32.0726 29.3575 32.0245 28.909 31.7522 28.5887L21.9182 16.5444L20.5248 18.2422L20.5088 18.2261Z" fill="#005DCC"/>
    <path d="M0.247969 4.46804L10.082 16.5283L11.4754 18.226L14.6146 22.07L16.008 23.7677L21.0531 29.95C21.2614 30.2062 21.5657 30.3504 21.886 30.3504H30.695L28.6609 28.2042H22.3985L17.4014 22.086L16.008 20.3882L12.8688 16.5443L11.4754 14.8466L3.33911 4.88446H9.60148L10.9308 6.51813C11.2992 6.9826 11.9879 7.04667 12.4364 6.67829C12.9008 6.30992 12.9649 5.62121 12.5965 5.17276L10.9469 3.13869C10.7386 2.88243 10.4343 2.73828 10.114 2.73828H1.08082C0.664395 2.73828 0.296014 2.97852 0.103819 3.3469C-0.0723607 3.71527 -0.0243079 4.16373 0.247969 4.48406V4.46804Z" fill="#005DCC"/>
    <path d="M11.5233 0C13.6214 0 15.3352 1.69773 15.3352 3.81188C15.3352 5.91001 13.6375 7.62376 11.5233 7.62376C9.42517 7.62376 7.71143 5.92603 7.71143 3.81188C7.71143 1.71374 9.40915 0 11.5233 0Z" fill="#FFC200"/>
</svg>
