<svg width="253" height="273" viewBox="0 0 253 273" fill="none" xmlns="http://www.w3.org/2000/svg">
<path d="M199.872 113.128C198.272 107.486 190.947 108.04 190.947 108.04L191.132 111.959C195.379 111.22 198.005 116.185 198.005 116.185L199.872 113.128Z" fill="#047CEC"/>
<path d="M44.278 124.983C42.6982 119.341 35.3535 119.875 35.3535 119.875L35.5587 123.814C39.8055 123.075 42.4316 128.04 42.4316 128.04L44.278 124.983Z" fill="#E0E0E0"/>
<path d="M129.971 46.9201C138.485 49.5051 143.778 39.6985 143.778 39.6985L138.608 36.7441C136.064 42.7553 127.57 42.0578 127.57 42.0578L129.971 46.9201Z" fill="#E0E0E0"/>
<path d="M82.7635 57.4883C78.8039 57.9191 78.332 62.884 78.332 62.884L80.9786 63.1917C80.9786 60.2785 84.6099 59.0885 84.6099 59.0885L82.7635 57.4883Z" fill="#047CEC"/>
<path d="M245.95 93.8431C246.525 89.904 241.847 88.2012 241.847 88.2012L240.883 90.6836C243.714 91.4017 243.981 95.2177 243.981 95.2177L245.95 93.8431Z" fill="#E0E0E0"/>
<path d="M105.86 5.64192C106.435 1.70283 101.757 0 101.757 0L100.793 2.50296C103.624 3.22102 103.891 7.01649 103.891 7.01649L105.86 5.64192Z" fill="#047CEC"/>
<path d="M8.04228 69.1827C7.34473 75.3375 15.5101 76.8557 15.5101 76.8557L16.9873 72.7525C12.0839 72.3011 11.3864 66.5977 11.3864 66.5977L8.04228 69.1827Z" fill="#047CEC"/>
<path d="M190.139 46.801C194.119 47.0266 195.391 42.2053 195.391 42.2053L192.827 41.4668C192.355 44.339 188.58 44.934 188.58 44.934L190.139 46.801Z" fill="#047CEC"/>
<path d="M211.872 63.004C210.805 63.3032 209.693 63.4074 208.589 63.3118C207.485 63.4097 206.373 63.3054 205.307 63.004C207.473 62.5664 209.705 62.5664 211.872 63.004Z" fill="#E0E0E0"/>
<path d="M215.356 54.082C215.766 56.2788 215.766 58.5325 215.356 60.7292C214.918 58.5351 214.918 56.2761 215.356 54.082Z" fill="#E0E0E0"/>
<path d="M219.051 62.7829C220.118 62.4837 221.23 62.3794 222.333 62.4751C223.437 62.3772 224.55 62.4815 225.616 62.7829C223.449 63.2205 221.217 63.2205 219.051 62.7829Z" fill="#047CEC"/>
<path d="M215.58 71.7244C215.143 69.5233 215.143 67.2577 215.58 65.0566C215.99 67.2603 215.99 69.5207 215.58 71.7244Z" fill="#E0E0E0"/>
<path d="M220.877 67.9946C220.754 68.0972 220.118 67.5638 219.461 66.8047C218.805 66.0456 218.415 65.307 218.538 65.2044C218.661 65.1019 219.318 65.6148 219.954 66.3944C220.59 67.174 221.021 67.7689 220.877 67.9946Z" fill="#E0E0E0"/>
<path d="M220.571 57.7324C220.694 57.876 220.263 58.512 219.586 59.1891C218.909 59.8661 218.273 60.3174 218.15 60.1943C218.027 60.0712 218.458 59.4148 219.135 58.7377C219.812 58.0607 220.448 57.7324 220.571 57.7324Z" fill="#E0E0E0"/>
<path d="M213.061 60.3394C212.937 60.483 212.322 60.1547 211.686 59.6213C211.05 59.0879 210.64 58.5545 210.742 58.4314C210.845 58.3083 211.46 58.616 212.096 59.1289C212.732 59.6418 213.163 60.2163 213.061 60.3394Z" fill="#E0E0E0"/>
<path d="M212.75 64.8093C212.894 64.9119 212.504 65.5479 211.888 66.2249C211.273 66.902 210.678 67.3328 210.555 67.2097C210.432 67.0866 210.801 66.4506 211.416 65.7941C212.032 65.1376 212.627 64.6862 212.75 64.8093Z" fill="#E0E0E0"/>
<path d="M33.1335 44.7047C30.967 45.1424 28.7349 45.1424 26.5684 44.7047C27.6351 44.4056 28.7471 44.3013 29.8509 44.397C30.9547 44.299 32.0671 44.4033 33.1335 44.7047Z" fill="#047CEC"/>
<path d="M36.6272 35.7832C37.0649 37.9842 37.0649 40.2499 36.6272 42.4509C36.1894 40.2499 36.1894 37.9842 36.6272 35.7832Z" fill="#047CEC"/>
<path d="M40.3379 44.5001C42.5044 44.0625 44.7365 44.0625 46.903 44.5001C44.7365 44.9378 42.5044 44.9378 40.3379 44.5001Z" fill="#047CEC"/>
<path d="M36.8478 53.4245C36.4101 51.2304 36.4101 48.9715 36.8478 46.7773C37.2856 48.9715 37.2856 51.2304 36.8478 53.4245Z" fill="#047CEC"/>
<path d="M42.1575 49.532C42.0139 49.655 41.3779 49.1216 40.7419 48.342C40.1059 47.5624 39.6751 46.8649 39.8187 46.7418C39.9623 46.6187 40.5778 47.1726 41.2343 47.9317C41.8908 48.6908 42.2806 49.532 42.1575 49.532Z" fill="#047CEC"/>
<path d="M41.8559 39.4742C41.979 39.5973 41.5277 40.2538 40.8712 40.9308C40.2147 41.6078 39.5581 42.0387 39.435 41.9156C39.3119 41.7925 39.7428 41.1565 40.4198 40.4794C41.0968 39.8024 41.7328 39.269 41.8559 39.4742Z" fill="#047CEC"/>
<path d="M34.3208 42.0619C34.2182 42.185 33.6027 41.8773 32.9667 41.3438C32.3307 40.8104 31.8999 40.277 32.023 40.1334C32.1461 39.9898 32.741 40.3181 33.377 40.8515C34.013 41.3849 34.4439 41.9183 34.3208 42.0619Z" fill="#047CEC"/>
<path d="M34.0375 46.5137C34.1606 46.6368 33.7708 47.2728 33.1758 47.9498C32.5809 48.6269 31.9654 49.0577 31.8218 48.9346C31.6781 48.8115 32.0885 48.1755 32.6834 47.519C33.2784 46.8625 33.8939 46.3906 34.0375 46.5137Z" fill="#047CEC"/>
<path d="M127 177C154.614 177 177 154.614 177 127C177 99.3857 154.614 77 127 77C99.3857 77 77 99.3857 77 127C77 154.614 99.3857 177 127 177Z" fill="#047CEC"/>
<path d="M151.622 105.894C152.252 106.409 142.913 118.976 130.766 133.95L123.394 142.888L122.382 144.11L121.313 143.002C111.763 133.205 105.327 125.947 105.785 125.489C106.244 125.031 113.52 131.505 123.299 140.997L121.236 141.207L128.455 132.173C140.602 117.105 150.973 105.378 151.622 105.894Z" fill="white"/>
<path d="M65.4107 235V221.44H60.5147V218.2H74.0507V221.44H69.0107V235H65.4107ZM76.5438 235V217.24H79.9038V224.896L79.2318 225.184C79.4078 224.608 79.7198 224.088 80.1678 223.624C80.6318 223.144 81.1838 222.76 81.8238 222.472C82.4638 222.184 83.1358 222.04 83.8398 222.04C84.7998 222.04 85.5998 222.232 86.2398 222.616C86.8958 223 87.3838 223.584 87.7038 224.368C88.0398 225.136 88.2078 226.088 88.2078 227.224V235H84.7998V227.488C84.7998 226.912 84.7198 226.432 84.5598 226.048C84.3998 225.664 84.1518 225.384 83.8158 225.208C83.4958 225.016 83.0958 224.936 82.6158 224.968C82.2318 224.968 81.8718 225.032 81.5358 225.16C81.2158 225.272 80.9358 225.44 80.6958 225.664C80.4718 225.888 80.2878 226.144 80.1438 226.432C80.0158 226.72 79.9518 227.032 79.9518 227.368V235H78.2718C77.9038 235 77.5758 235 77.2878 235C76.9998 235 76.7518 235 76.5438 235ZM96.2255 235.24C95.1695 235.24 94.2175 234.952 93.3695 234.376C92.5215 233.8 91.8495 233.016 91.3535 232.024C90.8575 231.032 90.6095 229.896 90.6095 228.616C90.6095 227.336 90.8575 226.208 91.3535 225.232C91.8655 224.24 92.5535 223.464 93.4175 222.904C94.2815 222.328 95.2655 222.04 96.3695 222.04C96.9935 222.04 97.5615 222.136 98.0735 222.328C98.6015 222.504 99.0575 222.752 99.4415 223.072C99.8415 223.392 100.178 223.76 100.45 224.176C100.722 224.592 100.914 225.04 101.026 225.52L100.306 225.4V222.304H103.69V235H100.258V231.952L101.026 231.88C100.898 232.328 100.69 232.752 100.402 233.152C100.114 233.552 99.7535 233.912 99.3215 234.232C98.9055 234.536 98.4335 234.784 97.9055 234.976C97.3775 235.152 96.8175 235.24 96.2255 235.24ZM97.1615 232.288C97.8015 232.288 98.3615 232.136 98.8415 231.832C99.3215 231.528 99.6895 231.104 99.9455 230.56C100.218 230 100.354 229.352 100.354 228.616C100.354 227.896 100.218 227.264 99.9455 226.72C99.6895 226.176 99.3215 225.752 98.8415 225.448C98.3615 225.128 97.8015 224.968 97.1615 224.968C96.5375 224.968 95.9855 225.128 95.5055 225.448C95.0415 225.752 94.6735 226.176 94.4015 226.72C94.1295 227.264 93.9935 227.896 93.9935 228.616C93.9935 229.352 94.1295 230 94.4015 230.56C94.6735 231.104 95.0415 231.528 95.5055 231.832C95.9855 232.136 96.5375 232.288 97.1615 232.288ZM107.106 235V222.304H110.37L110.466 224.896L109.794 225.184C109.97 224.608 110.282 224.088 110.73 223.624C111.194 223.144 111.746 222.76 112.386 222.472C113.026 222.184 113.698 222.04 114.402 222.04C115.362 222.04 116.162 222.232 116.802 222.616C117.458 223 117.946 223.584 118.266 224.368C118.602 225.136 118.77 226.088 118.77 227.224V235H115.362V227.488C115.362 226.912 115.282 226.432 115.122 226.048C114.962 225.664 114.714 225.384 114.378 225.208C114.058 225.016 113.658 224.936 113.178 224.968C112.794 224.968 112.434 225.032 112.098 225.16C111.778 225.272 111.498 225.44 111.258 225.664C111.034 225.888 110.85 226.144 110.706 226.432C110.578 226.72 110.514 227.032 110.514 227.368V235H108.834C108.466 235 108.138 235 107.85 235C107.562 235 107.314 235 107.106 235ZM125.276 231.184L124.268 228.376L130.268 222.304H134.756L125.276 231.184ZM122.036 235V217.24H125.444V235H122.036ZM130.628 235L126.068 229.264L128.468 227.344L134.732 235H130.628ZM156.205 235V226.624L156.373 227.8L149.581 218.2H153.733L158.917 225.64L157.285 225.568L161.965 218.2H165.973L159.469 228.064L159.829 226.432V235H156.205ZM171.604 235.24C170.308 235.24 169.148 234.96 168.124 234.4C167.116 233.824 166.316 233.04 165.724 232.048C165.148 231.056 164.86 229.92 164.86 228.64C164.86 227.36 165.148 226.232 165.724 225.256C166.316 224.264 167.116 223.48 168.124 222.904C169.148 222.328 170.308 222.04 171.604 222.04C172.884 222.04 174.028 222.328 175.036 222.904C176.06 223.48 176.86 224.264 177.436 225.256C178.012 226.232 178.3 227.36 178.3 228.64C178.3 229.92 178.012 231.056 177.436 232.048C176.86 233.04 176.06 233.824 175.036 234.4C174.028 234.96 172.884 235.24 171.604 235.24ZM171.604 232.264C172.228 232.264 172.788 232.112 173.284 231.808C173.78 231.488 174.164 231.056 174.436 230.512C174.724 229.952 174.868 229.328 174.868 228.64C174.868 227.936 174.724 227.312 174.436 226.768C174.164 226.208 173.78 225.776 173.284 225.472C172.788 225.152 172.228 224.992 171.604 224.992C170.964 224.992 170.396 225.152 169.9 225.472C169.404 225.792 169.012 226.224 168.724 226.768C168.436 227.312 168.3 227.936 168.316 228.64C168.3 229.328 168.436 229.952 168.724 230.512C169.012 231.056 169.404 231.488 169.9 231.808C170.396 232.112 170.964 232.264 171.604 232.264ZM185.232 235.24C184.304 235.24 183.504 235.04 182.832 234.64C182.176 234.224 181.664 233.64 181.296 232.888C180.944 232.12 180.768 231.2 180.768 230.128V222.304H184.176V229.576C184.176 230.152 184.272 230.656 184.464 231.088C184.656 231.504 184.928 231.824 185.28 232.048C185.632 232.272 186.064 232.384 186.576 232.384C186.944 232.384 187.288 232.328 187.608 232.216C187.928 232.088 188.2 231.912 188.424 231.688C188.648 231.464 188.824 231.2 188.952 230.896C189.08 230.592 189.144 230.264 189.144 229.912V222.304H192.552V235H189.312L189.192 232.384L189.816 232.096C189.624 232.688 189.304 233.224 188.856 233.704C188.408 234.184 187.872 234.56 187.248 234.832C186.624 235.104 185.952 235.24 185.232 235.24Z" fill="#1F0200"/>
<path d="M5.024 268.16C4.416 268.16 3.85067 268.08 3.328 267.92C2.816 267.76 2.34667 267.52 1.92 267.2C1.504 266.869 1.13067 266.464 0.8 265.984L1.984 264.624C2.50667 265.371 3.008 265.888 3.488 266.176C3.968 266.464 4.53867 266.608 5.2 266.608C5.60533 266.608 5.97333 266.544 6.304 266.416C6.63467 266.288 6.896 266.112 7.088 265.888C7.28 265.664 7.376 265.408 7.376 265.12C7.376 264.928 7.344 264.747 7.28 264.576C7.216 264.405 7.11467 264.251 6.976 264.112C6.848 263.973 6.67733 263.845 6.464 263.728C6.26133 263.611 6.02133 263.509 5.744 263.424C5.46667 263.328 5.14667 263.248 4.784 263.184C4.208 263.067 3.70667 262.912 3.28 262.72C2.85333 262.528 2.496 262.288 2.208 262C1.92 261.712 1.70667 261.387 1.568 261.024C1.42933 260.651 1.36 260.235 1.36 259.776C1.36 259.328 1.456 258.912 1.648 258.528C1.85067 258.144 2.12267 257.813 2.464 257.536C2.816 257.248 3.22667 257.029 3.696 256.88C4.16533 256.72 4.672 256.64 5.216 256.64C5.792 256.64 6.32 256.715 6.8 256.864C7.28 257.013 7.70667 257.237 8.08 257.536C8.45333 257.824 8.76267 258.181 9.008 258.608L7.792 259.808C7.57867 259.456 7.33867 259.163 7.072 258.928C6.80533 258.683 6.512 258.501 6.192 258.384C5.872 258.256 5.53067 258.192 5.168 258.192C4.752 258.192 4.38933 258.256 4.08 258.384C3.77067 258.512 3.52533 258.693 3.344 258.928C3.17333 259.152 3.088 259.419 3.088 259.728C3.088 259.952 3.13067 260.16 3.216 260.352C3.30133 260.533 3.42933 260.699 3.6 260.848C3.78133 260.987 4.02133 261.115 4.32 261.232C4.61867 261.339 4.976 261.435 5.392 261.52C5.97867 261.648 6.50133 261.813 6.96 262.016C7.41867 262.208 7.808 262.437 8.128 262.704C8.448 262.971 8.688 263.269 8.848 263.6C9.01867 263.931 9.104 264.288 9.104 264.672C9.104 265.387 8.93867 266.005 8.608 266.528C8.27733 267.051 7.808 267.456 7.2 267.744C6.592 268.021 5.86667 268.16 5.024 268.16ZM14.0804 268.16C13.483 268.16 12.9604 268.021 12.5124 267.744C12.075 267.467 11.7337 267.077 11.4884 266.576C11.2537 266.075 11.1364 265.477 11.1364 264.784V259.6H12.7844V264.336C12.7844 264.827 12.859 265.253 13.0084 265.616C13.1684 265.968 13.3924 266.24 13.6804 266.432C13.979 266.624 14.3364 266.72 14.7524 266.72C15.0617 266.72 15.3444 266.672 15.6004 266.576C15.8564 266.469 16.075 266.325 16.2564 266.144C16.4484 265.963 16.5977 265.744 16.7044 265.488C16.811 265.232 16.8644 264.955 16.8644 264.656V259.6H18.5124V268H16.8644V266.24L17.1524 266.048C17.0244 266.443 16.8057 266.8 16.4964 267.12C16.1977 267.44 15.8404 267.696 15.4244 267.888C15.0084 268.069 14.5604 268.16 14.0804 268.16ZM24.3919 268.16C23.6132 268.16 22.9145 267.968 22.2959 267.584C21.6879 267.2 21.2025 266.677 20.8399 266.016C20.4879 265.355 20.3119 264.613 20.3119 263.792C20.3119 262.971 20.4879 262.229 20.8399 261.568C21.2025 260.907 21.6879 260.384 22.2959 260C22.9145 259.616 23.6132 259.424 24.3919 259.424C25.1385 259.424 25.8159 259.579 26.4239 259.888C27.0425 260.187 27.5119 260.597 27.8319 261.12L26.9199 262.24C26.7492 261.995 26.5305 261.771 26.2639 261.568C25.9972 261.365 25.7145 261.205 25.4159 261.088C25.1172 260.971 24.8292 260.912 24.5519 260.912C24.0399 260.912 23.5812 261.04 23.1759 261.296C22.7812 261.541 22.4665 261.883 22.2319 262.32C21.9972 262.757 21.8799 263.248 21.8799 263.792C21.8799 264.336 22.0025 264.827 22.2479 265.264C22.4932 265.691 22.8185 266.032 23.2239 266.288C23.6292 266.544 24.0772 266.672 24.5679 266.672C24.8559 266.672 25.1332 266.624 25.3999 266.528C25.6772 266.432 25.9439 266.288 26.1999 266.096C26.4559 265.904 26.6959 265.669 26.9199 265.392L27.8319 266.512C27.4905 266.992 26.9999 267.387 26.3599 267.696C25.7305 268.005 25.0745 268.16 24.3919 268.16ZM32.9544 268.16C32.1757 268.16 31.477 267.968 30.8584 267.584C30.2504 267.2 29.765 266.677 29.4024 266.016C29.0504 265.355 28.8744 264.613 28.8744 263.792C28.8744 262.971 29.0504 262.229 29.4024 261.568C29.765 260.907 30.2504 260.384 30.8584 260C31.477 259.616 32.1757 259.424 32.9544 259.424C33.701 259.424 34.3784 259.579 34.9864 259.888C35.605 260.187 36.0744 260.597 36.3944 261.12L35.4824 262.24C35.3117 261.995 35.093 261.771 34.8264 261.568C34.5597 261.365 34.277 261.205 33.9784 261.088C33.6797 260.971 33.3917 260.912 33.1144 260.912C32.6024 260.912 32.1437 261.04 31.7384 261.296C31.3437 261.541 31.029 261.883 30.7944 262.32C30.5597 262.757 30.4424 263.248 30.4424 263.792C30.4424 264.336 30.565 264.827 30.8104 265.264C31.0557 265.691 31.381 266.032 31.7864 266.288C32.1917 266.544 32.6397 266.672 33.1304 266.672C33.4184 266.672 33.6957 266.624 33.9624 266.528C34.2397 266.432 34.5064 266.288 34.7624 266.096C35.0184 265.904 35.2584 265.669 35.4824 265.392L36.3944 266.512C36.053 266.992 35.5624 267.387 34.9224 267.696C34.293 268.005 33.637 268.16 32.9544 268.16ZM41.8689 268.16C41.0049 268.16 40.2369 267.979 39.5649 267.616C38.9035 267.243 38.3809 266.736 37.9969 266.096C37.6235 265.456 37.4369 264.72 37.4369 263.888C37.4369 263.227 37.5435 262.624 37.7569 262.08C37.9702 261.536 38.2635 261.067 38.6369 260.672C39.0209 260.267 39.4742 259.957 39.9969 259.744C40.5302 259.52 41.1062 259.408 41.7249 259.408C42.2689 259.408 42.7755 259.515 43.2449 259.728C43.7142 259.931 44.1195 260.213 44.4609 260.576C44.8129 260.939 45.0795 261.371 45.2609 261.872C45.4529 262.363 45.5435 262.901 45.5329 263.488L45.5169 264.192H38.6529L38.2849 262.88H44.0929L43.8529 263.152V262.768C43.8209 262.416 43.7035 262.101 43.5009 261.824C43.2982 261.547 43.0422 261.328 42.7329 261.168C42.4235 261.008 42.0875 260.928 41.7249 260.928C41.1489 260.928 40.6635 261.04 40.2689 261.264C39.8742 261.477 39.5755 261.797 39.3729 262.224C39.1702 262.64 39.0689 263.157 39.0689 263.776C39.0689 264.363 39.1915 264.875 39.4369 265.312C39.6822 265.739 40.0289 266.069 40.4769 266.304C40.9249 266.539 41.4422 266.656 42.0289 266.656C42.4449 266.656 42.8289 266.587 43.1809 266.448C43.5435 266.309 43.9329 266.059 44.3489 265.696L45.1809 266.864C44.9249 267.12 44.6102 267.344 44.2369 267.536C43.8742 267.728 43.4849 267.883 43.0689 268C42.6635 268.107 42.2635 268.16 41.8689 268.16ZM50.1239 268.16C49.4199 268.16 48.7852 268.037 48.2199 267.792C47.6545 267.547 47.1852 267.184 46.8119 266.704L47.9319 265.744C48.2519 266.117 48.5985 266.389 48.9719 266.56C49.3559 266.72 49.7879 266.8 50.2679 266.8C50.4599 266.8 50.6359 266.779 50.7959 266.736C50.9665 266.683 51.1105 266.608 51.2279 266.512C51.3559 266.416 51.4519 266.304 51.5159 266.176C51.5799 266.037 51.6119 265.888 51.6119 265.728C51.6119 265.451 51.5105 265.227 51.3079 265.056C51.2012 264.981 51.0305 264.901 50.7959 264.816C50.5719 264.72 50.2785 264.624 49.9159 264.528C49.2972 264.368 48.7905 264.187 48.3959 263.984C48.0012 263.781 47.6972 263.552 47.4839 263.296C47.3239 263.093 47.2065 262.875 47.1319 262.64C47.0572 262.395 47.0199 262.128 47.0199 261.84C47.0199 261.488 47.0945 261.168 47.2439 260.88C47.4039 260.581 47.6172 260.325 47.8839 260.112C48.1612 259.888 48.4812 259.717 48.8439 259.6C49.2172 259.483 49.6119 259.424 50.0279 259.424C50.4225 259.424 50.8119 259.477 51.1959 259.584C51.5905 259.691 51.9532 259.845 52.2839 260.048C52.6145 260.251 52.8919 260.491 53.1159 260.768L52.1719 261.808C51.9692 261.605 51.7452 261.429 51.4999 261.28C51.2652 261.12 51.0252 260.997 50.7799 260.912C50.5345 260.827 50.3105 260.784 50.1079 260.784C49.8839 260.784 49.6812 260.805 49.4999 260.848C49.3185 260.891 49.1639 260.955 49.0359 261.04C48.9185 261.125 48.8279 261.232 48.7639 261.36C48.6999 261.488 48.6679 261.632 48.6679 261.792C48.6785 261.931 48.7105 262.064 48.7639 262.192C48.8279 262.309 48.9132 262.411 49.0199 262.496C49.1372 262.581 49.3132 262.672 49.5479 262.768C49.7825 262.864 50.0812 262.955 50.4439 263.04C50.9772 263.179 51.4145 263.333 51.7559 263.504C52.1079 263.664 52.3852 263.851 52.5879 264.064C52.8012 264.267 52.9505 264.501 53.0359 264.768C53.1212 265.035 53.1639 265.333 53.1639 265.664C53.1639 266.144 53.0252 266.576 52.7479 266.96C52.4812 267.333 52.1185 267.627 51.6599 267.84C51.2012 268.053 50.6892 268.16 50.1239 268.16ZM57.7801 268.16C57.0761 268.16 56.4415 268.037 55.8761 267.792C55.3108 267.547 54.8415 267.184 54.4681 266.704L55.5881 265.744C55.9081 266.117 56.2548 266.389 56.6281 266.56C57.0121 266.72 57.4441 266.8 57.9241 266.8C58.1161 266.8 58.2921 266.779 58.4521 266.736C58.6228 266.683 58.7668 266.608 58.8841 266.512C59.0121 266.416 59.1081 266.304 59.1721 266.176C59.2361 266.037 59.2681 265.888 59.2681 265.728C59.2681 265.451 59.1668 265.227 58.9641 265.056C58.8575 264.981 58.6868 264.901 58.4521 264.816C58.2281 264.72 57.9348 264.624 57.5721 264.528C56.9535 264.368 56.4468 264.187 56.0521 263.984C55.6575 263.781 55.3535 263.552 55.1401 263.296C54.9801 263.093 54.8628 262.875 54.7881 262.64C54.7135 262.395 54.6761 262.128 54.6761 261.84C54.6761 261.488 54.7508 261.168 54.9001 260.88C55.0601 260.581 55.2735 260.325 55.5401 260.112C55.8175 259.888 56.1375 259.717 56.5001 259.6C56.8735 259.483 57.2681 259.424 57.6841 259.424C58.0788 259.424 58.4681 259.477 58.8521 259.584C59.2468 259.691 59.6095 259.845 59.9401 260.048C60.2708 260.251 60.5481 260.491 60.7721 260.768L59.8281 261.808C59.6255 261.605 59.4015 261.429 59.1561 261.28C58.9215 261.12 58.6815 260.997 58.4361 260.912C58.1908 260.827 57.9668 260.784 57.7641 260.784C57.5401 260.784 57.3375 260.805 57.1561 260.848C56.9748 260.891 56.8201 260.955 56.6921 261.04C56.5748 261.125 56.4841 261.232 56.4201 261.36C56.3561 261.488 56.3241 261.632 56.3241 261.792C56.3348 261.931 56.3668 262.064 56.4201 262.192C56.4841 262.309 56.5695 262.411 56.6761 262.496C56.7935 262.581 56.9695 262.672 57.2041 262.768C57.4388 262.864 57.7375 262.955 58.1001 263.04C58.6335 263.179 59.0708 263.333 59.4121 263.504C59.7641 263.664 60.0415 263.851 60.2441 264.064C60.4575 264.267 60.6068 264.501 60.6921 264.768C60.7775 265.035 60.8201 265.333 60.8201 265.664C60.8201 266.144 60.6815 266.576 60.4041 266.96C60.1375 267.333 59.7748 267.627 59.3161 267.84C58.8575 268.053 58.3455 268.16 57.7801 268.16ZM63.5484 268V258.656C63.5484 258.176 63.655 257.749 63.8684 257.376C64.0817 257.003 64.375 256.709 64.7484 256.496C65.1217 256.283 65.5537 256.176 66.0444 256.176C66.3857 256.176 66.7057 256.24 67.0044 256.368C67.303 256.496 67.543 256.667 67.7244 256.88L67.1644 258.144C67.0257 258.016 66.871 257.915 66.7004 257.84C66.5404 257.755 66.3857 257.712 66.2364 257.712C66.0124 257.712 65.8204 257.749 65.6604 257.824C65.511 257.888 65.399 257.995 65.3244 258.144C65.2497 258.283 65.2124 258.453 65.2124 258.656V268H64.3804C64.2417 268 64.103 268 63.9644 268C63.8257 268 63.687 268 63.5484 268ZM62.2044 261.264V259.744H67.1964V261.264H62.2044ZM71.8616 268.16C71.2643 268.16 70.7416 268.021 70.2936 267.744C69.8563 267.467 69.515 267.077 69.2696 266.576C69.035 266.075 68.9176 265.477 68.9176 264.784V259.6H70.5656V264.336C70.5656 264.827 70.6403 265.253 70.7896 265.616C70.9496 265.968 71.1736 266.24 71.4616 266.432C71.7603 266.624 72.1176 266.72 72.5336 266.72C72.843 266.72 73.1256 266.672 73.3816 266.576C73.6376 266.469 73.8563 266.325 74.0376 266.144C74.2296 265.963 74.379 265.744 74.4856 265.488C74.5923 265.232 74.6456 264.955 74.6456 264.656V259.6H76.2936V268H74.6456V266.24L74.9336 266.048C74.8056 266.443 74.587 266.8 74.2776 267.12C73.979 267.44 73.6216 267.696 73.2056 267.888C72.7896 268.069 72.3416 268.16 71.8616 268.16ZM78.6371 268V256.16H80.2851V268H78.6371ZM82.6528 268V256.16H84.3008V268H82.6528ZM87.81 271.68L89.506 267.76L89.522 269.072L85.33 259.6H87.25L89.874 265.776C89.9273 265.883 89.9913 266.048 90.066 266.272C90.1407 266.485 90.2047 266.699 90.258 266.912L89.842 267.008C89.9273 266.784 90.0073 266.56 90.082 266.336C90.1673 266.112 90.2473 265.888 90.322 265.664L92.514 259.6H94.466L91.01 268L89.586 271.68H87.81ZM100.599 268V256.8H104.983C105.783 256.8 106.503 256.933 107.143 257.2C107.794 257.467 108.349 257.851 108.807 258.352C109.266 258.853 109.618 259.445 109.863 260.128C110.109 260.811 110.231 261.568 110.231 262.4C110.231 263.232 110.109 263.995 109.863 264.688C109.618 265.371 109.266 265.963 108.807 266.464C108.359 266.955 107.81 267.333 107.159 267.6C106.509 267.867 105.783 268 104.983 268H100.599ZM102.327 266.512L102.279 266.336H104.903C105.469 266.336 105.97 266.245 106.407 266.064C106.855 265.883 107.229 265.627 107.527 265.296C107.837 264.955 108.071 264.539 108.231 264.048C108.391 263.557 108.471 263.008 108.471 262.4C108.471 261.792 108.391 261.248 108.231 260.768C108.071 260.277 107.837 259.861 107.527 259.52C107.218 259.179 106.845 258.917 106.407 258.736C105.97 258.555 105.469 258.464 104.903 258.464H102.231L102.327 258.32V266.512ZM115.928 268.16C115.107 268.16 114.371 267.973 113.72 267.6C113.08 267.216 112.573 266.699 112.2 266.048C111.827 265.387 111.64 264.635 111.64 263.792C111.64 262.949 111.827 262.203 112.2 261.552C112.573 260.891 113.08 260.373 113.72 260C114.371 259.616 115.107 259.424 115.928 259.424C116.739 259.424 117.464 259.616 118.104 260C118.755 260.373 119.267 260.891 119.64 261.552C120.013 262.203 120.2 262.949 120.2 263.792C120.2 264.635 120.013 265.387 119.64 266.048C119.267 266.699 118.755 267.216 118.104 267.6C117.464 267.973 116.739 268.16 115.928 268.16ZM115.928 266.656C116.429 266.656 116.877 266.533 117.272 266.288C117.667 266.032 117.976 265.691 118.2 265.264C118.424 264.827 118.531 264.336 118.52 263.792C118.531 263.237 118.424 262.747 118.2 262.32C117.976 261.883 117.667 261.541 117.272 261.296C116.877 261.051 116.429 260.928 115.928 260.928C115.427 260.928 114.973 261.056 114.568 261.312C114.173 261.557 113.864 261.899 113.64 262.336C113.416 262.763 113.309 263.248 113.32 263.792C113.309 264.336 113.416 264.827 113.64 265.264C113.864 265.691 114.173 266.032 114.568 266.288C114.973 266.533 115.427 266.656 115.928 266.656ZM121.996 268V259.6H123.644V261.328L123.356 261.52C123.462 261.147 123.67 260.805 123.98 260.496C124.289 260.176 124.657 259.92 125.084 259.728C125.51 259.525 125.948 259.424 126.396 259.424C127.036 259.424 127.569 259.552 127.996 259.808C128.422 260.053 128.742 260.432 128.956 260.944C129.169 261.456 129.276 262.101 129.276 262.88V268H127.628V262.992C127.628 262.512 127.564 262.117 127.436 261.808C127.308 261.488 127.11 261.259 126.844 261.12C126.577 260.971 126.246 260.907 125.852 260.928C125.532 260.928 125.238 260.981 124.972 261.088C124.705 261.184 124.47 261.323 124.268 261.504C124.076 261.685 123.921 261.899 123.804 262.144C123.697 262.379 123.644 262.635 123.644 262.912V268H122.828C122.689 268 122.55 268 122.412 268C122.273 268 122.134 268 121.996 268ZM135.431 268.16C134.567 268.16 133.799 267.979 133.127 267.616C132.466 267.243 131.943 266.736 131.559 266.096C131.186 265.456 130.999 264.72 130.999 263.888C130.999 263.227 131.106 262.624 131.319 262.08C131.533 261.536 131.826 261.067 132.199 260.672C132.583 260.267 133.037 259.957 133.559 259.744C134.093 259.52 134.669 259.408 135.287 259.408C135.831 259.408 136.338 259.515 136.807 259.728C137.277 259.931 137.682 260.213 138.023 260.576C138.375 260.939 138.642 261.371 138.823 261.872C139.015 262.363 139.106 262.901 139.095 263.488L139.079 264.192H132.215L131.847 262.88H137.655L137.415 263.152V262.768C137.383 262.416 137.266 262.101 137.063 261.824C136.861 261.547 136.605 261.328 136.295 261.168C135.986 261.008 135.65 260.928 135.287 260.928C134.711 260.928 134.226 261.04 133.831 261.264C133.437 261.477 133.138 261.797 132.935 262.224C132.733 262.64 132.631 263.157 132.631 263.776C132.631 264.363 132.754 264.875 132.999 265.312C133.245 265.739 133.591 266.069 134.039 266.304C134.487 266.539 135.005 266.656 135.591 266.656C136.007 266.656 136.391 266.587 136.743 266.448C137.106 266.309 137.495 266.059 137.911 265.696L138.743 266.864C138.487 267.12 138.173 267.344 137.799 267.536C137.437 267.728 137.047 267.883 136.631 268C136.226 268.107 135.826 268.16 135.431 268.16ZM148.795 268V262.416L148.907 263.2L144.379 256.8H146.459L149.915 261.76L149.515 261.712L152.635 256.8H154.619L150.283 263.376L150.523 262.288V268H148.795ZM158.428 268.16C157.607 268.16 156.871 267.973 156.22 267.6C155.58 267.216 155.073 266.699 154.7 266.048C154.327 265.387 154.14 264.635 154.14 263.792C154.14 262.949 154.327 262.203 154.7 261.552C155.073 260.891 155.58 260.373 156.22 260C156.871 259.616 157.607 259.424 158.428 259.424C159.239 259.424 159.964 259.616 160.604 260C161.255 260.373 161.767 260.891 162.14 261.552C162.513 262.203 162.7 262.949 162.7 263.792C162.7 264.635 162.513 265.387 162.14 266.048C161.767 266.699 161.255 267.216 160.604 267.6C159.964 267.973 159.239 268.16 158.428 268.16ZM158.428 266.656C158.929 266.656 159.377 266.533 159.772 266.288C160.167 266.032 160.476 265.691 160.7 265.264C160.924 264.827 161.031 264.336 161.02 263.792C161.031 263.237 160.924 262.747 160.7 262.32C160.476 261.883 160.167 261.541 159.772 261.296C159.377 261.051 158.929 260.928 158.428 260.928C157.927 260.928 157.473 261.056 157.068 261.312C156.673 261.557 156.364 261.899 156.14 262.336C155.916 262.763 155.809 263.248 155.82 263.792C155.809 264.336 155.916 264.827 156.14 265.264C156.364 265.691 156.673 266.032 157.068 266.288C157.473 266.533 157.927 266.656 158.428 266.656ZM167.44 268.16C166.842 268.16 166.32 268.021 165.872 267.744C165.434 267.467 165.093 267.077 164.848 266.576C164.613 266.075 164.496 265.477 164.496 264.784V259.6H166.144V264.336C166.144 264.827 166.218 265.253 166.368 265.616C166.528 265.968 166.752 266.24 167.04 266.432C167.338 266.624 167.696 266.72 168.112 266.72C168.421 266.72 168.704 266.672 168.96 266.576C169.216 266.469 169.434 266.325 169.616 266.144C169.808 265.963 169.957 265.744 170.064 265.488C170.17 265.232 170.224 264.955 170.224 264.656V259.6H171.872V268H170.224V266.24L170.512 266.048C170.384 266.443 170.165 266.8 169.856 267.12C169.557 267.44 169.2 267.696 168.784 267.888C168.368 268.069 167.92 268.16 167.44 268.16ZM174.183 268V259.6H175.847V262.24L175.687 261.6C175.805 261.195 176.002 260.827 176.279 260.496C176.567 260.165 176.893 259.904 177.255 259.712C177.629 259.52 178.013 259.424 178.407 259.424C178.589 259.424 178.759 259.44 178.919 259.472C179.09 259.504 179.223 259.541 179.319 259.584L178.887 261.376C178.759 261.323 178.615 261.28 178.455 261.248C178.306 261.205 178.157 261.184 178.007 261.184C177.719 261.184 177.442 261.243 177.175 261.36C176.919 261.467 176.69 261.621 176.487 261.824C176.295 262.016 176.141 262.245 176.023 262.512C175.906 262.768 175.847 263.051 175.847 263.36V268H174.183ZM184.369 268L188.705 256.8H190.465L194.769 268H192.929L190.369 261.248C190.337 261.173 190.273 260.992 190.177 260.704C190.091 260.416 189.99 260.096 189.873 259.744C189.755 259.392 189.649 259.072 189.553 258.784C189.457 258.485 189.393 258.293 189.361 258.208L189.729 258.192C189.665 258.373 189.585 258.603 189.489 258.88C189.403 259.157 189.307 259.451 189.201 259.76C189.105 260.069 189.009 260.363 188.913 260.64C188.817 260.907 188.737 261.131 188.673 261.312L186.129 268H184.369ZM186.289 265.216L186.929 263.552H192.017L192.753 265.216H186.289ZM199.579 268.16C198.801 268.16 198.102 267.968 197.483 267.584C196.875 267.2 196.39 266.677 196.027 266.016C195.675 265.355 195.499 264.613 195.499 263.792C195.499 262.971 195.675 262.229 196.027 261.568C196.39 260.907 196.875 260.384 197.483 260C198.102 259.616 198.801 259.424 199.579 259.424C200.326 259.424 201.003 259.579 201.611 259.888C202.23 260.187 202.699 260.597 203.019 261.12L202.107 262.24C201.937 261.995 201.718 261.771 201.451 261.568C201.185 261.365 200.902 261.205 200.603 261.088C200.305 260.971 200.017 260.912 199.739 260.912C199.227 260.912 198.769 261.04 198.363 261.296C197.969 261.541 197.654 261.883 197.419 262.32C197.185 262.757 197.067 263.248 197.067 263.792C197.067 264.336 197.19 264.827 197.435 265.264C197.681 265.691 198.006 266.032 198.411 266.288C198.817 266.544 199.265 266.672 199.755 266.672C200.043 266.672 200.321 266.624 200.587 266.528C200.865 266.432 201.131 266.288 201.387 266.096C201.643 265.904 201.883 265.669 202.107 265.392L203.019 266.512C202.678 266.992 202.187 267.387 201.547 267.696C200.918 268.005 200.262 268.16 199.579 268.16ZM208.142 268.16C207.363 268.16 206.665 267.968 206.046 267.584C205.438 267.2 204.953 266.677 204.59 266.016C204.238 265.355 204.062 264.613 204.062 263.792C204.062 262.971 204.238 262.229 204.59 261.568C204.953 260.907 205.438 260.384 206.046 260C206.665 259.616 207.363 259.424 208.142 259.424C208.889 259.424 209.566 259.579 210.174 259.888C210.793 260.187 211.262 260.597 211.582 261.12L210.67 262.24C210.499 261.995 210.281 261.771 210.014 261.568C209.747 261.365 209.465 261.205 209.166 261.088C208.867 260.971 208.579 260.912 208.302 260.912C207.79 260.912 207.331 261.04 206.926 261.296C206.531 261.541 206.217 261.883 205.982 262.32C205.747 262.757 205.63 263.248 205.63 263.792C205.63 264.336 205.753 264.827 205.998 265.264C206.243 265.691 206.569 266.032 206.974 266.288C207.379 266.544 207.827 266.672 208.318 266.672C208.606 266.672 208.883 266.624 209.15 266.528C209.427 266.432 209.694 266.288 209.95 266.096C210.206 265.904 210.446 265.669 210.67 265.392L211.582 266.512C211.241 266.992 210.75 267.387 210.11 267.696C209.481 268.005 208.825 268.16 208.142 268.16ZM216.912 268.16C216.091 268.16 215.355 267.973 214.704 267.6C214.064 267.216 213.558 266.699 213.184 266.048C212.811 265.387 212.624 264.635 212.624 263.792C212.624 262.949 212.811 262.203 213.184 261.552C213.558 260.891 214.064 260.373 214.704 260C215.355 259.616 216.091 259.424 216.912 259.424C217.723 259.424 218.448 259.616 219.088 260C219.739 260.373 220.251 260.891 220.624 261.552C220.998 262.203 221.184 262.949 221.184 263.792C221.184 264.635 220.998 265.387 220.624 266.048C220.251 266.699 219.739 267.216 219.088 267.6C218.448 267.973 217.723 268.16 216.912 268.16ZM216.912 266.656C217.414 266.656 217.862 266.533 218.256 266.288C218.651 266.032 218.96 265.691 219.184 265.264C219.408 264.827 219.515 264.336 219.504 263.792C219.515 263.237 219.408 262.747 219.184 262.32C218.96 261.883 218.651 261.541 218.256 261.296C217.862 261.051 217.414 260.928 216.912 260.928C216.411 260.928 215.958 261.056 215.552 261.312C215.158 261.557 214.848 261.899 214.624 262.336C214.4 262.763 214.294 263.248 214.304 263.792C214.294 264.336 214.4 264.827 214.624 265.264C214.848 265.691 215.158 266.032 215.552 266.288C215.958 266.533 216.411 266.656 216.912 266.656ZM225.924 268.16C225.327 268.16 224.804 268.021 224.356 267.744C223.919 267.467 223.577 267.077 223.332 266.576C223.097 266.075 222.98 265.477 222.98 264.784V259.6H224.628V264.336C224.628 264.827 224.703 265.253 224.852 265.616C225.012 265.968 225.236 266.24 225.524 266.432C225.823 266.624 226.18 266.72 226.596 266.72C226.905 266.72 227.188 266.672 227.444 266.576C227.7 266.469 227.919 266.325 228.1 266.144C228.292 265.963 228.441 265.744 228.548 265.488C228.655 265.232 228.708 264.955 228.708 264.656V259.6H230.356V268H228.708V266.24L228.996 266.048C228.868 266.443 228.649 266.8 228.34 267.12C228.041 267.44 227.684 267.696 227.268 267.888C226.852 268.069 226.404 268.16 225.924 268.16ZM232.668 268V259.6H234.316V261.328L234.028 261.52C234.134 261.147 234.342 260.805 234.652 260.496C234.961 260.176 235.329 259.92 235.756 259.728C236.182 259.525 236.62 259.424 237.068 259.424C237.708 259.424 238.241 259.552 238.668 259.808C239.094 260.053 239.414 260.432 239.628 260.944C239.841 261.456 239.948 262.101 239.948 262.88V268H238.3V262.992C238.3 262.512 238.236 262.117 238.108 261.808C237.98 261.488 237.782 261.259 237.516 261.12C237.249 260.971 236.918 260.907 236.524 260.928C236.204 260.928 235.91 260.981 235.644 261.088C235.377 261.184 235.142 261.323 234.94 261.504C234.748 261.685 234.593 261.899 234.476 262.144C234.369 262.379 234.316 262.635 234.316 262.912V268H233.5C233.361 268 233.222 268 233.084 268C232.945 268 232.806 268 232.668 268ZM243.223 268V257.456H244.871V268H243.223ZM241.479 261.2V259.6H246.823V261.2H241.479Z" fill="#1E1E1E"/>
</svg>
