<svg width="290" height="273" viewBox="0 0 290 273" fill="none" xmlns="http://www.w3.org/2000/svg">
<path d="M217.872 113.128C216.272 107.486 208.947 108.04 208.947 108.04L209.132 111.959C213.379 111.22 216.005 116.185 216.005 116.185L217.872 113.128Z" fill="#047CEC"/>
<path d="M62.278 124.983C60.6982 119.341 53.3535 119.875 53.3535 119.875L53.5587 123.814C57.8055 123.075 60.4316 128.04 60.4316 128.04L62.278 124.983Z" fill="#E0E0E0"/>
<path d="M147.971 46.9201C156.485 49.5051 161.778 39.6985 161.778 39.6985L156.608 36.7441C154.064 42.7553 145.57 42.0578 145.57 42.0578L147.971 46.9201Z" fill="#E0E0E0"/>
<path d="M100.764 57.4883C96.8039 57.9191 96.332 62.884 96.332 62.884L98.9786 63.1917C98.9786 60.2785 102.61 59.0885 102.61 59.0885L100.764 57.4883Z" fill="#047CEC"/>
<path d="M263.95 93.8431C264.525 89.904 259.847 88.2012 259.847 88.2012L258.883 90.6836C261.714 91.4017 261.981 95.2177 261.981 95.2177L263.95 93.8431Z" fill="#E0E0E0"/>
<path d="M123.86 5.64192C124.435 1.70283 119.757 0 119.757 0L118.793 2.50296C121.624 3.22102 121.891 7.01649 121.891 7.01649L123.86 5.64192Z" fill="#047CEC"/>
<path d="M26.0423 69.1827C25.3447 75.3375 33.5101 76.8557 33.5101 76.8557L34.9873 72.7525C30.0839 72.3011 29.3864 66.5977 29.3864 66.5977L26.0423 69.1827Z" fill="#047CEC"/>
<path d="M208.139 46.801C212.119 47.0266 213.391 42.2053 213.391 42.2053L210.827 41.4668C210.355 44.339 206.58 44.934 206.58 44.934L208.139 46.801Z" fill="#047CEC"/>
<path d="M229.872 63.004C228.805 63.3032 227.693 63.4074 226.589 63.3118C225.485 63.4097 224.373 63.3054 223.307 63.004C225.473 62.5664 227.705 62.5664 229.872 63.004Z" fill="#E0E0E0"/>
<path d="M233.356 54.082C233.766 56.2788 233.766 58.5325 233.356 60.7292C232.918 58.5351 232.918 56.2761 233.356 54.082Z" fill="#E0E0E0"/>
<path d="M237.051 62.7829C238.118 62.4837 239.23 62.3794 240.333 62.4751C241.437 62.3772 242.55 62.4815 243.616 62.7829C241.449 63.2205 239.217 63.2205 237.051 62.7829Z" fill="#047CEC"/>
<path d="M233.58 71.7244C233.143 69.5233 233.143 67.2577 233.58 65.0566C233.99 67.2603 233.99 69.5207 233.58 71.7244Z" fill="#E0E0E0"/>
<path d="M238.877 67.9946C238.754 68.0972 238.118 67.5638 237.461 66.8047C236.805 66.0456 236.415 65.307 236.538 65.2044C236.661 65.1019 237.318 65.6148 237.954 66.3944C238.59 67.174 239.021 67.7689 238.877 67.9946Z" fill="#E0E0E0"/>
<path d="M238.571 57.7324C238.694 57.876 238.263 58.512 237.586 59.1891C236.909 59.8661 236.273 60.3174 236.15 60.1943C236.027 60.0712 236.458 59.4148 237.135 58.7377C237.812 58.0607 238.448 57.7324 238.571 57.7324Z" fill="#E0E0E0"/>
<path d="M231.061 60.3394C230.937 60.483 230.322 60.1547 229.686 59.6213C229.05 59.0879 228.64 58.5545 228.742 58.4314C228.845 58.3083 229.46 58.616 230.096 59.1289C230.732 59.6418 231.163 60.2163 231.061 60.3394Z" fill="#E0E0E0"/>
<path d="M230.75 64.8093C230.894 64.9119 230.504 65.5479 229.888 66.2249C229.273 66.902 228.678 67.3328 228.555 67.2097C228.432 67.0866 228.801 66.4506 229.416 65.7941C230.032 65.1376 230.627 64.6862 230.75 64.8093Z" fill="#E0E0E0"/>
<path d="M51.1335 44.7047C48.967 45.1424 46.7349 45.1424 44.5684 44.7047C45.6351 44.4056 46.7471 44.3013 47.8509 44.397C48.9547 44.299 50.0671 44.4033 51.1335 44.7047Z" fill="#047CEC"/>
<path d="M54.6272 35.7832C55.0649 37.9842 55.0649 40.2499 54.6272 42.4509C54.1894 40.2499 54.1894 37.9842 54.6272 35.7832Z" fill="#047CEC"/>
<path d="M58.3379 44.5001C60.5044 44.0625 62.7365 44.0625 64.903 44.5001C62.7365 44.9378 60.5044 44.9378 58.3379 44.5001Z" fill="#047CEC"/>
<path d="M54.8478 53.4245C54.4101 51.2304 54.4101 48.9715 54.8478 46.7773C55.2856 48.9715 55.2856 51.2304 54.8478 53.4245Z" fill="#047CEC"/>
<path d="M60.1575 49.532C60.0139 49.655 59.3779 49.1216 58.7419 48.342C58.1059 47.5624 57.6751 46.8649 57.8187 46.7418C57.9623 46.6187 58.5778 47.1726 59.2343 47.9317C59.8908 48.6908 60.2806 49.532 60.1575 49.532Z" fill="#047CEC"/>
<path d="M59.8559 39.4742C59.979 39.5973 59.5277 40.2538 58.8712 40.9308C58.2147 41.6078 57.5581 42.0387 57.435 41.9156C57.3119 41.7925 57.7428 41.1565 58.4198 40.4794C59.0968 39.8024 59.7328 39.269 59.8559 39.4742Z" fill="#047CEC"/>
<path d="M52.3208 42.0619C52.2182 42.185 51.6027 41.8773 50.9667 41.3438C50.3307 40.8104 49.8999 40.277 50.023 40.1334C50.1461 39.9898 50.741 40.3181 51.377 40.8515C52.013 41.3849 52.4439 41.9183 52.3208 42.0619Z" fill="#047CEC"/>
<path d="M52.0375 46.5137C52.1606 46.6368 51.7708 47.2728 51.1758 47.9498C50.5809 48.6269 49.9654 49.0577 49.8218 48.9346C49.6781 48.8115 50.0885 48.1755 50.6834 47.519C51.2784 46.8625 51.8939 46.3906 52.0375 46.5137Z" fill="#047CEC"/>
<path d="M145 177C172.614 177 195 154.614 195 127C195 99.3857 172.614 77 145 77C117.386 77 95 99.3857 95 127C95 154.614 117.386 177 145 177Z" fill="#047CEC"/>
<path d="M169.622 105.894C170.252 106.409 160.913 118.976 148.766 133.95L141.394 142.888L140.382 144.11L139.313 143.002C129.763 133.205 123.327 125.947 123.785 125.489C124.244 125.031 131.52 131.505 141.299 140.997L139.236 141.207L146.455 132.173C158.602 117.105 168.973 105.378 169.622 105.894Z" fill="white"/>
<path d="M83.4107 235V221.44H78.5147V218.2H92.0507V221.44H87.0107V235H83.4107ZM94.5438 235V217.24H97.9038V224.896L97.2318 225.184C97.4078 224.608 97.7198 224.088 98.1678 223.624C98.6318 223.144 99.1838 222.76 99.8238 222.472C100.464 222.184 101.136 222.04 101.84 222.04C102.8 222.04 103.6 222.232 104.24 222.616C104.896 223 105.384 223.584 105.704 224.368C106.04 225.136 106.208 226.088 106.208 227.224V235H102.8V227.488C102.8 226.912 102.72 226.432 102.56 226.048C102.4 225.664 102.152 225.384 101.816 225.208C101.496 225.016 101.096 224.936 100.616 224.968C100.232 224.968 99.8718 225.032 99.5358 225.16C99.2158 225.272 98.9358 225.44 98.6958 225.664C98.4718 225.888 98.2878 226.144 98.1438 226.432C98.0158 226.72 97.9518 227.032 97.9518 227.368V235H96.2718C95.9038 235 95.5758 235 95.2878 235C94.9998 235 94.7518 235 94.5438 235ZM114.226 235.24C113.17 235.24 112.218 234.952 111.37 234.376C110.522 233.8 109.85 233.016 109.354 232.024C108.858 231.032 108.61 229.896 108.61 228.616C108.61 227.336 108.858 226.208 109.354 225.232C109.866 224.24 110.554 223.464 111.418 222.904C112.282 222.328 113.266 222.04 114.37 222.04C114.994 222.04 115.562 222.136 116.074 222.328C116.602 222.504 117.058 222.752 117.442 223.072C117.842 223.392 118.178 223.76 118.45 224.176C118.722 224.592 118.914 225.04 119.026 225.52L118.306 225.4V222.304H121.69V235H118.258V231.952L119.026 231.88C118.898 232.328 118.69 232.752 118.402 233.152C118.114 233.552 117.754 233.912 117.322 234.232C116.906 234.536 116.434 234.784 115.906 234.976C115.378 235.152 114.818 235.24 114.226 235.24ZM115.162 232.288C115.802 232.288 116.362 232.136 116.842 231.832C117.322 231.528 117.69 231.104 117.946 230.56C118.218 230 118.354 229.352 118.354 228.616C118.354 227.896 118.218 227.264 117.946 226.72C117.69 226.176 117.322 225.752 116.842 225.448C116.362 225.128 115.802 224.968 115.162 224.968C114.538 224.968 113.986 225.128 113.506 225.448C113.042 225.752 112.674 226.176 112.402 226.72C112.13 227.264 111.994 227.896 111.994 228.616C111.994 229.352 112.13 230 112.402 230.56C112.674 231.104 113.042 231.528 113.506 231.832C113.986 232.136 114.538 232.288 115.162 232.288ZM125.106 235V222.304H128.37L128.466 224.896L127.794 225.184C127.97 224.608 128.282 224.088 128.73 223.624C129.194 223.144 129.746 222.76 130.386 222.472C131.026 222.184 131.698 222.04 132.402 222.04C133.362 222.04 134.162 222.232 134.802 222.616C135.458 223 135.946 223.584 136.266 224.368C136.602 225.136 136.77 226.088 136.77 227.224V235H133.362V227.488C133.362 226.912 133.282 226.432 133.122 226.048C132.962 225.664 132.714 225.384 132.378 225.208C132.058 225.016 131.658 224.936 131.178 224.968C130.794 224.968 130.434 225.032 130.098 225.16C129.778 225.272 129.498 225.44 129.258 225.664C129.034 225.888 128.85 226.144 128.706 226.432C128.578 226.72 128.514 227.032 128.514 227.368V235H126.834C126.466 235 126.138 235 125.85 235C125.562 235 125.314 235 125.106 235ZM143.276 231.184L142.268 228.376L148.268 222.304H152.756L143.276 231.184ZM140.036 235V217.24H143.444V235H140.036ZM148.628 235L144.068 229.264L146.468 227.344L152.732 235H148.628ZM174.205 235V226.624L174.373 227.8L167.581 218.2H171.733L176.917 225.64L175.285 225.568L179.965 218.2H183.973L177.469 228.064L177.829 226.432V235H174.205ZM189.604 235.24C188.308 235.24 187.148 234.96 186.124 234.4C185.116 233.824 184.316 233.04 183.724 232.048C183.148 231.056 182.86 229.92 182.86 228.64C182.86 227.36 183.148 226.232 183.724 225.256C184.316 224.264 185.116 223.48 186.124 222.904C187.148 222.328 188.308 222.04 189.604 222.04C190.884 222.04 192.028 222.328 193.036 222.904C194.06 223.48 194.86 224.264 195.436 225.256C196.012 226.232 196.3 227.36 196.3 228.64C196.3 229.92 196.012 231.056 195.436 232.048C194.86 233.04 194.06 233.824 193.036 234.4C192.028 234.96 190.884 235.24 189.604 235.24ZM189.604 232.264C190.228 232.264 190.788 232.112 191.284 231.808C191.78 231.488 192.164 231.056 192.436 230.512C192.724 229.952 192.868 229.328 192.868 228.64C192.868 227.936 192.724 227.312 192.436 226.768C192.164 226.208 191.78 225.776 191.284 225.472C190.788 225.152 190.228 224.992 189.604 224.992C188.964 224.992 188.396 225.152 187.9 225.472C187.404 225.792 187.012 226.224 186.724 226.768C186.436 227.312 186.3 227.936 186.316 228.64C186.3 229.328 186.436 229.952 186.724 230.512C187.012 231.056 187.404 231.488 187.9 231.808C188.396 232.112 188.964 232.264 189.604 232.264ZM203.232 235.24C202.304 235.24 201.504 235.04 200.832 234.64C200.176 234.224 199.664 233.64 199.296 232.888C198.944 232.12 198.768 231.2 198.768 230.128V222.304H202.176V229.576C202.176 230.152 202.272 230.656 202.464 231.088C202.656 231.504 202.928 231.824 203.28 232.048C203.632 232.272 204.064 232.384 204.576 232.384C204.944 232.384 205.288 232.328 205.608 232.216C205.928 232.088 206.2 231.912 206.424 231.688C206.648 231.464 206.824 231.2 206.952 230.896C207.08 230.592 207.144 230.264 207.144 229.912V222.304H210.552V235H207.312L207.192 232.384L207.816 232.096C207.624 232.688 207.304 233.224 206.856 233.704C206.408 234.184 205.872 234.56 205.248 234.832C204.624 235.104 203.952 235.24 203.232 235.24Z" fill="#1F0200"/>
<path d="M4.576 268V262.416L4.688 263.2L0.16 256.8H2.24L5.696 261.76L5.296 261.712L8.416 256.8H10.4L6.064 263.376L6.304 262.288V268H4.576ZM14.2093 268.16C13.3879 268.16 12.6519 267.973 12.0013 267.6C11.3613 267.216 10.8546 266.699 10.4813 266.048C10.1079 265.387 9.92125 264.635 9.92125 263.792C9.92125 262.949 10.1079 262.203 10.4813 261.552C10.8546 260.891 11.3613 260.373 12.0013 260C12.6519 259.616 13.3879 259.424 14.2093 259.424C15.0199 259.424 15.7453 259.616 16.3853 260C17.0359 260.373 17.5479 260.891 17.9213 261.552C18.2946 262.203 18.4813 262.949 18.4813 263.792C18.4813 264.635 18.2946 265.387 17.9213 266.048C17.5479 266.699 17.0359 267.216 16.3853 267.6C15.7453 267.973 15.0199 268.16 14.2093 268.16ZM14.2093 266.656C14.7106 266.656 15.1586 266.533 15.5533 266.288C15.9479 266.032 16.2573 265.691 16.4813 265.264C16.7053 264.827 16.8119 264.336 16.8013 263.792C16.8119 263.237 16.7053 262.747 16.4813 262.32C16.2573 261.883 15.9479 261.541 15.5533 261.296C15.1586 261.051 14.7106 260.928 14.2093 260.928C13.7079 260.928 13.2546 261.056 12.8493 261.312C12.4546 261.557 12.1453 261.899 11.9213 262.336C11.6973 262.763 11.5906 263.248 11.6013 263.792C11.5906 264.336 11.6973 264.827 11.9213 265.264C12.1453 265.691 12.4546 266.032 12.8493 266.288C13.2546 266.533 13.7079 266.656 14.2093 266.656ZM23.221 268.16C22.6237 268.16 22.101 268.021 21.653 267.744C21.2157 267.467 20.8743 267.077 20.629 266.576C20.3943 266.075 20.277 265.477 20.277 264.784V259.6H21.925V264.336C21.925 264.827 21.9997 265.253 22.149 265.616C22.309 265.968 22.533 266.24 22.821 266.432C23.1197 266.624 23.477 266.72 23.893 266.72C24.2023 266.72 24.485 266.672 24.741 266.576C24.997 266.469 25.2157 266.325 25.397 266.144C25.589 265.963 25.7383 265.744 25.845 265.488C25.9517 265.232 26.005 264.955 26.005 264.656V259.6H27.653V268H26.005V266.24L26.293 266.048C26.165 266.443 25.9463 266.8 25.637 267.12C25.3383 267.44 24.981 267.696 24.565 267.888C24.149 268.069 23.701 268.16 23.221 268.16ZM29.9645 268V259.6H31.6285V262.24L31.4685 261.6C31.5858 261.195 31.7832 260.827 32.0605 260.496C32.3485 260.165 32.6738 259.904 33.0365 259.712C33.4098 259.52 33.7938 259.424 34.1885 259.424C34.3698 259.424 34.5405 259.44 34.7005 259.472C34.8712 259.504 35.0045 259.541 35.1005 259.584L34.6685 261.376C34.5405 261.323 34.3965 261.28 34.2365 261.248C34.0872 261.205 33.9378 261.184 33.7885 261.184C33.5005 261.184 33.2232 261.243 32.9565 261.36C32.7005 261.467 32.4712 261.621 32.2685 261.824C32.0765 262.016 31.9218 262.245 31.8045 262.512C31.6872 262.768 31.6285 263.051 31.6285 263.36V268H29.9645ZM40.15 268L44.486 256.8H46.246L50.55 268H48.71L46.15 261.248C46.118 261.173 46.054 260.992 45.958 260.704C45.8727 260.416 45.7713 260.096 45.654 259.744C45.5367 259.392 45.43 259.072 45.334 258.784C45.238 258.485 45.174 258.293 45.142 258.208L45.51 258.192C45.446 258.373 45.366 258.603 45.27 258.88C45.1847 259.157 45.0887 259.451 44.982 259.76C44.886 260.069 44.79 260.363 44.694 260.64C44.598 260.907 44.518 261.131 44.454 261.312L41.91 268H40.15ZM42.07 265.216L42.71 263.552H47.798L48.534 265.216H42.07ZM55.3606 268.16C54.582 268.16 53.8833 267.968 53.2646 267.584C52.6566 267.2 52.1713 266.677 51.8086 266.016C51.4566 265.355 51.2806 264.613 51.2806 263.792C51.2806 262.971 51.4566 262.229 51.8086 261.568C52.1713 260.907 52.6566 260.384 53.2646 260C53.8833 259.616 54.582 259.424 55.3606 259.424C56.1073 259.424 56.7846 259.579 57.3926 259.888C58.0113 260.187 58.4806 260.597 58.8006 261.12L57.8886 262.24C57.718 261.995 57.4993 261.771 57.2326 261.568C56.966 261.365 56.6833 261.205 56.3846 261.088C56.086 260.971 55.798 260.912 55.5206 260.912C55.0086 260.912 54.55 261.04 54.1446 261.296C53.75 261.541 53.4353 261.883 53.2006 262.32C52.966 262.757 52.8486 263.248 52.8486 263.792C52.8486 264.336 52.9713 264.827 53.2166 265.264C53.462 265.691 53.7873 266.032 54.1926 266.288C54.598 266.544 55.046 266.672 55.5366 266.672C55.8246 266.672 56.102 266.624 56.3686 266.528C56.646 266.432 56.9126 266.288 57.1686 266.096C57.4246 265.904 57.6646 265.669 57.8886 265.392L58.8006 266.512C58.4593 266.992 57.9686 267.387 57.3286 267.696C56.6993 268.005 56.0433 268.16 55.3606 268.16ZM63.9231 268.16C63.1445 268.16 62.4458 267.968 61.8271 267.584C61.2191 267.2 60.7338 266.677 60.3711 266.016C60.0191 265.355 59.8431 264.613 59.8431 263.792C59.8431 262.971 60.0191 262.229 60.3711 261.568C60.7338 260.907 61.2191 260.384 61.8271 260C62.4458 259.616 63.1445 259.424 63.9231 259.424C64.6698 259.424 65.3471 259.579 65.9551 259.888C66.5738 260.187 67.0431 260.597 67.3631 261.12L66.4511 262.24C66.2805 261.995 66.0618 261.771 65.7951 261.568C65.5285 261.365 65.2458 261.205 64.9471 261.088C64.6485 260.971 64.3605 260.912 64.0831 260.912C63.5711 260.912 63.1125 261.04 62.7071 261.296C62.3125 261.541 61.9978 261.883 61.7631 262.32C61.5285 262.757 61.4111 263.248 61.4111 263.792C61.4111 264.336 61.5338 264.827 61.7791 265.264C62.0245 265.691 62.3498 266.032 62.7551 266.288C63.1605 266.544 63.6085 266.672 64.0991 266.672C64.3871 266.672 64.6645 266.624 64.9311 266.528C65.2085 266.432 65.4751 266.288 65.7311 266.096C65.9871 265.904 66.2271 265.669 66.4511 265.392L67.3631 266.512C67.0218 266.992 66.5311 267.387 65.8911 267.696C65.2618 268.005 64.6058 268.16 63.9231 268.16ZM72.6936 268.16C71.8723 268.16 71.1363 267.973 70.4856 267.6C69.8456 267.216 69.339 266.699 68.9656 266.048C68.5923 265.387 68.4056 264.635 68.4056 263.792C68.4056 262.949 68.5923 262.203 68.9656 261.552C69.339 260.891 69.8456 260.373 70.4856 260C71.1363 259.616 71.8723 259.424 72.6936 259.424C73.5043 259.424 74.2296 259.616 74.8696 260C75.5203 260.373 76.0323 260.891 76.4056 261.552C76.779 262.203 76.9656 262.949 76.9656 263.792C76.9656 264.635 76.779 265.387 76.4056 266.048C76.0323 266.699 75.5203 267.216 74.8696 267.6C74.2296 267.973 73.5043 268.16 72.6936 268.16ZM72.6936 266.656C73.195 266.656 73.643 266.533 74.0376 266.288C74.4323 266.032 74.7416 265.691 74.9656 265.264C75.1896 264.827 75.2963 264.336 75.2856 263.792C75.2963 263.237 75.1896 262.747 74.9656 262.32C74.7416 261.883 74.4323 261.541 74.0376 261.296C73.643 261.051 73.195 260.928 72.6936 260.928C72.1923 260.928 71.739 261.056 71.3336 261.312C70.939 261.557 70.6296 261.899 70.4056 262.336C70.1816 262.763 70.075 263.248 70.0856 263.792C70.075 264.336 70.1816 264.827 70.4056 265.264C70.6296 265.691 70.939 266.032 71.3336 266.288C71.739 266.533 72.1923 266.656 72.6936 266.656ZM81.7054 268.16C81.108 268.16 80.5854 268.021 80.1374 267.744C79.7 267.467 79.3587 267.077 79.1134 266.576C78.8787 266.075 78.7614 265.477 78.7614 264.784V259.6H80.4094V264.336C80.4094 264.827 80.484 265.253 80.6334 265.616C80.7934 265.968 81.0174 266.24 81.3054 266.432C81.604 266.624 81.9614 266.72 82.3774 266.72C82.6867 266.72 82.9694 266.672 83.2254 266.576C83.4814 266.469 83.7 266.325 83.8814 266.144C84.0734 265.963 84.2227 265.744 84.3294 265.488C84.436 265.232 84.4894 264.955 84.4894 264.656V259.6H86.1374V268H84.4894V266.24L84.7774 266.048C84.6494 266.443 84.4307 266.8 84.1214 267.12C83.8227 267.44 83.4654 267.696 83.0494 267.888C82.6334 268.069 82.1854 268.16 81.7054 268.16ZM88.4489 268V259.6H90.0969V261.328L89.8089 261.52C89.9155 261.147 90.1235 260.805 90.4329 260.496C90.7422 260.176 91.1102 259.92 91.5369 259.728C91.9635 259.525 92.4009 259.424 92.8489 259.424C93.4889 259.424 94.0222 259.552 94.4489 259.808C94.8755 260.053 95.1955 260.432 95.4089 260.944C95.6222 261.456 95.7289 262.101 95.7289 262.88V268H94.0809V262.992C94.0809 262.512 94.0169 262.117 93.8889 261.808C93.7609 261.488 93.5635 261.259 93.2969 261.12C93.0302 260.971 92.6995 260.907 92.3049 260.928C91.9849 260.928 91.6915 260.981 91.4249 261.088C91.1582 261.184 90.9235 261.323 90.7209 261.504C90.5289 261.685 90.3742 261.899 90.2569 262.144C90.1502 262.379 90.0969 262.635 90.0969 262.912V268H89.2809C89.1422 268 89.0035 268 88.8649 268C88.7262 268 88.5875 268 88.4489 268ZM99.0045 268V257.456H100.653V268H99.0045ZM97.2605 261.2V259.6H102.605V261.2H97.2605ZM108.862 268V259.6H110.51V268H108.862ZM109.662 257.744C109.31 257.744 109.038 257.653 108.846 257.472C108.654 257.291 108.558 257.035 108.558 256.704C108.558 256.395 108.654 256.144 108.846 255.952C109.048 255.76 109.32 255.664 109.662 255.664C110.014 255.664 110.286 255.755 110.478 255.936C110.67 256.117 110.766 256.373 110.766 256.704C110.766 257.013 110.664 257.264 110.462 257.456C110.27 257.648 110.003 257.744 109.662 257.744ZM115.843 268.16C115.139 268.16 114.504 268.037 113.939 267.792C113.373 267.547 112.904 267.184 112.531 266.704L113.651 265.744C113.971 266.117 114.317 266.389 114.691 266.56C115.075 266.72 115.507 266.8 115.987 266.8C116.179 266.8 116.355 266.779 116.515 266.736C116.685 266.683 116.829 266.608 116.947 266.512C117.075 266.416 117.171 266.304 117.235 266.176C117.299 266.037 117.331 265.888 117.331 265.728C117.331 265.451 117.229 265.227 117.027 265.056C116.92 264.981 116.749 264.901 116.515 264.816C116.291 264.72 115.997 264.624 115.635 264.528C115.016 264.368 114.509 264.187 114.115 263.984C113.72 263.781 113.416 263.552 113.203 263.296C113.043 263.093 112.925 262.875 112.851 262.64C112.776 262.395 112.739 262.128 112.739 261.84C112.739 261.488 112.813 261.168 112.963 260.88C113.123 260.581 113.336 260.325 113.603 260.112C113.88 259.888 114.2 259.717 114.563 259.6C114.936 259.483 115.331 259.424 115.747 259.424C116.141 259.424 116.531 259.477 116.915 259.584C117.309 259.691 117.672 259.845 118.003 260.048C118.333 260.251 118.611 260.491 118.835 260.768L117.891 261.808C117.688 261.605 117.464 261.429 117.219 261.28C116.984 261.12 116.744 260.997 116.499 260.912C116.253 260.827 116.029 260.784 115.827 260.784C115.603 260.784 115.4 260.805 115.219 260.848C115.037 260.891 114.883 260.955 114.755 261.04C114.637 261.125 114.547 261.232 114.483 261.36C114.419 261.488 114.387 261.632 114.387 261.792C114.397 261.931 114.429 262.064 114.483 262.192C114.547 262.309 114.632 262.411 114.739 262.496C114.856 262.581 115.032 262.672 115.267 262.768C115.501 262.864 115.8 262.955 116.163 263.04C116.696 263.179 117.133 263.333 117.475 263.504C117.827 263.664 118.104 263.851 118.307 264.064C118.52 264.267 118.669 264.501 118.755 264.768C118.84 265.035 118.883 265.333 118.883 265.664C118.883 266.144 118.744 266.576 118.467 266.96C118.2 267.333 117.837 267.627 117.379 267.84C116.92 268.053 116.408 268.16 115.843 268.16ZM130.143 268.16C129.365 268.16 128.65 268.021 127.999 267.744C127.349 267.467 126.783 267.072 126.303 266.56C125.823 266.037 125.45 265.424 125.183 264.72C124.927 264.016 124.799 263.243 124.799 262.4C124.799 261.6 124.938 260.859 125.215 260.176C125.503 259.483 125.898 258.875 126.399 258.352C126.901 257.829 127.482 257.424 128.143 257.136C128.805 256.848 129.519 256.704 130.287 256.704C130.831 256.704 131.359 256.789 131.871 256.96C132.394 257.12 132.863 257.349 133.279 257.648C133.706 257.936 134.053 258.267 134.319 258.64L133.167 259.84C132.858 259.531 132.543 259.275 132.223 259.072C131.914 258.859 131.594 258.699 131.263 258.592C130.943 258.485 130.618 258.432 130.287 258.432C129.765 258.432 129.274 258.533 128.815 258.736C128.367 258.928 127.973 259.2 127.631 259.552C127.301 259.904 127.039 260.325 126.847 260.816C126.655 261.296 126.559 261.824 126.559 262.4C126.559 263.008 126.65 263.563 126.831 264.064C127.023 264.555 127.29 264.976 127.631 265.328C127.973 265.68 128.378 265.952 128.847 266.144C129.327 266.325 129.855 266.416 130.431 266.416C130.783 266.416 131.13 266.368 131.471 266.272C131.813 266.176 132.133 266.037 132.431 265.856C132.73 265.675 133.002 265.461 133.247 265.216L134.111 266.624C133.866 266.912 133.53 267.173 133.103 267.408C132.687 267.643 132.218 267.829 131.695 267.968C131.183 268.096 130.666 268.16 130.143 268.16ZM136.043 268V259.6H137.707V262.24L137.547 261.6C137.664 261.195 137.861 260.827 138.139 260.496C138.427 260.165 138.752 259.904 139.115 259.712C139.488 259.52 139.872 259.424 140.267 259.424C140.448 259.424 140.619 259.44 140.779 259.472C140.949 259.504 141.083 259.541 141.179 259.584L140.747 261.376C140.619 261.323 140.475 261.28 140.315 261.248C140.165 261.205 140.016 261.184 139.867 261.184C139.579 261.184 139.301 261.243 139.035 261.36C138.779 261.467 138.549 261.621 138.347 261.824C138.155 262.016 138 262.245 137.883 262.512C137.765 262.768 137.707 263.051 137.707 263.36V268H136.043ZM146.056 268.16C145.192 268.16 144.424 267.979 143.752 267.616C143.091 267.243 142.568 266.736 142.184 266.096C141.811 265.456 141.624 264.72 141.624 263.888C141.624 263.227 141.731 262.624 141.944 262.08C142.158 261.536 142.451 261.067 142.824 260.672C143.208 260.267 143.662 259.957 144.184 259.744C144.718 259.52 145.294 259.408 145.912 259.408C146.456 259.408 146.963 259.515 147.432 259.728C147.902 259.931 148.307 260.213 148.648 260.576C149 260.939 149.267 261.371 149.448 261.872C149.64 262.363 149.731 262.901 149.72 263.488L149.704 264.192H142.84L142.472 262.88H148.28L148.04 263.152V262.768C148.008 262.416 147.891 262.101 147.688 261.824C147.486 261.547 147.23 261.328 146.92 261.168C146.611 261.008 146.275 260.928 145.912 260.928C145.336 260.928 144.851 261.04 144.456 261.264C144.062 261.477 143.763 261.797 143.56 262.224C143.358 262.64 143.256 263.157 143.256 263.776C143.256 264.363 143.379 264.875 143.624 265.312C143.87 265.739 144.216 266.069 144.664 266.304C145.112 266.539 145.63 266.656 146.216 266.656C146.632 266.656 147.016 266.587 147.368 266.448C147.731 266.309 148.12 266.059 148.536 265.696L149.368 266.864C149.112 267.12 148.798 267.344 148.424 267.536C148.062 267.728 147.672 267.883 147.256 268C146.851 268.107 146.451 268.16 146.056 268.16ZM154.743 268.16C154.05 268.16 153.415 267.968 152.839 267.584C152.274 267.2 151.821 266.677 151.479 266.016C151.138 265.355 150.967 264.608 150.967 263.776C150.967 262.933 151.138 262.187 151.479 261.536C151.831 260.875 152.301 260.357 152.887 259.984C153.485 259.611 154.151 259.424 154.887 259.424C155.325 259.424 155.725 259.488 156.087 259.616C156.45 259.744 156.765 259.925 157.031 260.16C157.309 260.384 157.533 260.645 157.703 260.944C157.885 261.243 157.997 261.563 158.039 261.904L157.671 261.776V259.6H159.335V268H157.671V266L158.055 265.888C157.991 266.176 157.858 266.459 157.655 266.736C157.463 267.003 157.213 267.243 156.903 267.456C156.605 267.669 156.269 267.84 155.895 267.968C155.533 268.096 155.149 268.16 154.743 268.16ZM155.175 266.64C155.677 266.64 156.119 266.517 156.503 266.272C156.887 266.027 157.186 265.691 157.399 265.264C157.623 264.827 157.735 264.331 157.735 263.776C157.735 263.232 157.623 262.747 157.399 262.32C157.186 261.893 156.887 261.557 156.503 261.312C156.119 261.067 155.677 260.944 155.175 260.944C154.685 260.944 154.247 261.067 153.863 261.312C153.49 261.557 153.191 261.893 152.967 262.32C152.754 262.747 152.647 263.232 152.647 263.776C152.647 264.331 152.754 264.827 152.967 265.264C153.191 265.691 153.49 266.027 153.863 266.272C154.247 266.517 154.685 266.64 155.175 266.64ZM162.676 268V257.456H164.324V268H162.676ZM160.932 261.2V259.6H166.276V261.2H160.932ZM171.619 268.16C170.755 268.16 169.987 267.979 169.315 267.616C168.654 267.243 168.131 266.736 167.747 266.096C167.374 265.456 167.187 264.72 167.187 263.888C167.187 263.227 167.294 262.624 167.507 262.08C167.72 261.536 168.014 261.067 168.387 260.672C168.771 260.267 169.224 259.957 169.747 259.744C170.28 259.52 170.856 259.408 171.475 259.408C172.019 259.408 172.526 259.515 172.995 259.728C173.464 259.931 173.87 260.213 174.211 260.576C174.563 260.939 174.83 261.371 175.011 261.872C175.203 262.363 175.294 262.901 175.283 263.488L175.267 264.192H168.403L168.035 262.88H173.843L173.603 263.152V262.768C173.571 262.416 173.454 262.101 173.251 261.824C173.048 261.547 172.792 261.328 172.483 261.168C172.174 261.008 171.838 260.928 171.475 260.928C170.899 260.928 170.414 261.04 170.019 261.264C169.624 261.477 169.326 261.797 169.123 262.224C168.92 262.64 168.819 263.157 168.819 263.776C168.819 264.363 168.942 264.875 169.187 265.312C169.432 265.739 169.779 266.069 170.227 266.304C170.675 266.539 171.192 266.656 171.779 266.656C172.195 266.656 172.579 266.587 172.931 266.448C173.294 266.309 173.683 266.059 174.099 265.696L174.931 266.864C174.675 267.12 174.36 267.344 173.987 267.536C173.624 267.728 173.235 267.883 172.819 268C172.414 268.107 172.014 268.16 171.619 268.16ZM180.578 268.16C179.81 268.16 179.122 267.973 178.514 267.6C177.917 267.216 177.442 266.699 177.09 266.048C176.738 265.387 176.562 264.635 176.562 263.792C176.562 262.949 176.733 262.203 177.074 261.552C177.426 260.891 177.901 260.373 178.498 260C179.095 259.616 179.773 259.424 180.53 259.424C180.946 259.424 181.346 259.493 181.73 259.632C182.125 259.76 182.477 259.941 182.786 260.176C183.095 260.4 183.335 260.651 183.506 260.928C183.687 261.195 183.778 261.467 183.778 261.744L183.298 261.776V256.16H184.946V268H183.298V266H183.618C183.618 266.256 183.533 266.512 183.362 266.768C183.191 267.013 182.962 267.243 182.674 267.456C182.397 267.669 182.071 267.84 181.698 267.968C181.335 268.096 180.962 268.16 180.578 268.16ZM180.802 266.736C181.303 266.736 181.746 266.608 182.13 266.352C182.514 266.096 182.813 265.749 183.026 265.312C183.25 264.864 183.362 264.357 183.362 263.792C183.362 263.227 183.25 262.725 183.026 262.288C182.813 261.84 182.514 261.488 182.13 261.232C181.746 260.976 181.303 260.848 180.802 260.848C180.301 260.848 179.858 260.976 179.474 261.232C179.09 261.488 178.786 261.84 178.562 262.288C178.349 262.725 178.242 263.227 178.242 263.792C178.242 264.357 178.349 264.864 178.562 265.312C178.786 265.749 179.09 266.096 179.474 266.352C179.858 266.608 180.301 266.736 180.802 266.736ZM195.571 268.16C194.963 268.16 194.398 268.08 193.875 267.92C193.363 267.76 192.894 267.52 192.467 267.2C192.051 266.869 191.678 266.464 191.347 265.984L192.531 264.624C193.054 265.371 193.555 265.888 194.035 266.176C194.515 266.464 195.086 266.608 195.747 266.608C196.152 266.608 196.52 266.544 196.851 266.416C197.182 266.288 197.443 266.112 197.635 265.888C197.827 265.664 197.923 265.408 197.923 265.12C197.923 264.928 197.891 264.747 197.827 264.576C197.763 264.405 197.662 264.251 197.523 264.112C197.395 263.973 197.224 263.845 197.011 263.728C196.808 263.611 196.568 263.509 196.291 263.424C196.014 263.328 195.694 263.248 195.331 263.184C194.755 263.067 194.254 262.912 193.827 262.72C193.4 262.528 193.043 262.288 192.755 262C192.467 261.712 192.254 261.387 192.115 261.024C191.976 260.651 191.907 260.235 191.907 259.776C191.907 259.328 192.003 258.912 192.195 258.528C192.398 258.144 192.67 257.813 193.011 257.536C193.363 257.248 193.774 257.029 194.243 256.88C194.712 256.72 195.219 256.64 195.763 256.64C196.339 256.64 196.867 256.715 197.347 256.864C197.827 257.013 198.254 257.237 198.627 257.536C199 257.824 199.31 258.181 199.555 258.608L198.339 259.808C198.126 259.456 197.886 259.163 197.619 258.928C197.352 258.683 197.059 258.501 196.739 258.384C196.419 258.256 196.078 258.192 195.715 258.192C195.299 258.192 194.936 258.256 194.627 258.384C194.318 258.512 194.072 258.693 193.891 258.928C193.72 259.152 193.635 259.419 193.635 259.728C193.635 259.952 193.678 260.16 193.763 260.352C193.848 260.533 193.976 260.699 194.147 260.848C194.328 260.987 194.568 261.115 194.867 261.232C195.166 261.339 195.523 261.435 195.939 261.52C196.526 261.648 197.048 261.813 197.507 262.016C197.966 262.208 198.355 262.437 198.675 262.704C198.995 262.971 199.235 263.269 199.395 263.6C199.566 263.931 199.651 264.288 199.651 264.672C199.651 265.387 199.486 266.005 199.155 266.528C198.824 267.051 198.355 267.456 197.747 267.744C197.139 268.021 196.414 268.16 195.571 268.16ZM204.627 268.16C204.03 268.16 203.507 268.021 203.059 267.744C202.622 267.467 202.281 267.077 202.035 266.576C201.801 266.075 201.683 265.477 201.683 264.784V259.6H203.331V264.336C203.331 264.827 203.406 265.253 203.555 265.616C203.715 265.968 203.939 266.24 204.227 266.432C204.526 266.624 204.883 266.72 205.299 266.72C205.609 266.72 205.891 266.672 206.147 266.576C206.403 266.469 206.622 266.325 206.803 266.144C206.995 265.963 207.145 265.744 207.251 265.488C207.358 265.232 207.411 264.955 207.411 264.656V259.6H209.059V268H207.411V266.24L207.699 266.048C207.571 266.443 207.353 266.8 207.043 267.12C206.745 267.44 206.387 267.696 205.971 267.888C205.555 268.069 205.107 268.16 204.627 268.16ZM214.939 268.16C214.16 268.16 213.461 267.968 212.843 267.584C212.235 267.2 211.749 266.677 211.387 266.016C211.035 265.355 210.859 264.613 210.859 263.792C210.859 262.971 211.035 262.229 211.387 261.568C211.749 260.907 212.235 260.384 212.843 260C213.461 259.616 214.16 259.424 214.939 259.424C215.685 259.424 216.363 259.579 216.971 259.888C217.589 260.187 218.059 260.597 218.379 261.12L217.467 262.24C217.296 261.995 217.077 261.771 216.811 261.568C216.544 261.365 216.261 261.205 215.963 261.088C215.664 260.971 215.376 260.912 215.099 260.912C214.587 260.912 214.128 261.04 213.723 261.296C213.328 261.541 213.013 261.883 212.779 262.32C212.544 262.757 212.427 263.248 212.427 263.792C212.427 264.336 212.549 264.827 212.795 265.264C213.04 265.691 213.365 266.032 213.771 266.288C214.176 266.544 214.624 266.672 215.115 266.672C215.403 266.672 215.68 266.624 215.947 266.528C216.224 266.432 216.491 266.288 216.747 266.096C217.003 265.904 217.243 265.669 217.467 265.392L218.379 266.512C218.037 266.992 217.547 267.387 216.907 267.696C216.277 268.005 215.621 268.16 214.939 268.16ZM223.501 268.16C222.723 268.16 222.024 267.968 221.405 267.584C220.797 267.2 220.312 266.677 219.949 266.016C219.597 265.355 219.421 264.613 219.421 263.792C219.421 262.971 219.597 262.229 219.949 261.568C220.312 260.907 220.797 260.384 221.405 260C222.024 259.616 222.723 259.424 223.501 259.424C224.248 259.424 224.925 259.579 225.533 259.888C226.152 260.187 226.621 260.597 226.941 261.12L226.029 262.24C225.859 261.995 225.64 261.771 225.373 261.568C225.107 261.365 224.824 261.205 224.525 261.088C224.227 260.971 223.939 260.912 223.661 260.912C223.149 260.912 222.691 261.04 222.285 261.296C221.891 261.541 221.576 261.883 221.341 262.32C221.107 262.757 220.989 263.248 220.989 263.792C220.989 264.336 221.112 264.827 221.357 265.264C221.603 265.691 221.928 266.032 222.333 266.288C222.739 266.544 223.187 266.672 223.677 266.672C223.965 266.672 224.243 266.624 224.509 266.528C224.787 266.432 225.053 266.288 225.309 266.096C225.565 265.904 225.805 265.669 226.029 265.392L226.941 266.512C226.6 266.992 226.109 267.387 225.469 267.696C224.84 268.005 224.184 268.16 223.501 268.16ZM232.416 268.16C231.552 268.16 230.784 267.979 230.112 267.616C229.45 267.243 228.928 266.736 228.544 266.096C228.17 265.456 227.984 264.72 227.984 263.888C227.984 263.227 228.09 262.624 228.304 262.08C228.517 261.536 228.81 261.067 229.184 260.672C229.568 260.267 230.021 259.957 230.544 259.744C231.077 259.52 231.653 259.408 232.272 259.408C232.816 259.408 233.322 259.515 233.792 259.728C234.261 259.931 234.666 260.213 235.008 260.576C235.36 260.939 235.626 261.371 235.808 261.872C236 262.363 236.09 262.901 236.08 263.488L236.064 264.192H229.2L228.832 262.88H234.64L234.4 263.152V262.768C234.368 262.416 234.25 262.101 234.048 261.824C233.845 261.547 233.589 261.328 233.28 261.168C232.97 261.008 232.634 260.928 232.272 260.928C231.696 260.928 231.21 261.04 230.816 261.264C230.421 261.477 230.122 261.797 229.92 262.224C229.717 262.64 229.616 263.157 229.616 263.776C229.616 264.363 229.738 264.875 229.984 265.312C230.229 265.739 230.576 266.069 231.024 266.304C231.472 266.539 231.989 266.656 232.576 266.656C232.992 266.656 233.376 266.587 233.728 266.448C234.09 266.309 234.48 266.059 234.896 265.696L235.728 266.864C235.472 267.12 235.157 267.344 234.784 267.536C234.421 267.728 234.032 267.883 233.616 268C233.21 268.107 232.81 268.16 232.416 268.16ZM240.671 268.16C239.967 268.16 239.332 268.037 238.767 267.792C238.201 267.547 237.732 267.184 237.359 266.704L238.479 265.744C238.799 266.117 239.145 266.389 239.519 266.56C239.903 266.72 240.335 266.8 240.815 266.8C241.007 266.8 241.183 266.779 241.343 266.736C241.513 266.683 241.657 266.608 241.775 266.512C241.903 266.416 241.999 266.304 242.063 266.176C242.127 266.037 242.159 265.888 242.159 265.728C242.159 265.451 242.057 265.227 241.855 265.056C241.748 264.981 241.577 264.901 241.343 264.816C241.119 264.72 240.825 264.624 240.463 264.528C239.844 264.368 239.337 264.187 238.943 263.984C238.548 263.781 238.244 263.552 238.031 263.296C237.871 263.093 237.753 262.875 237.679 262.64C237.604 262.395 237.567 262.128 237.567 261.84C237.567 261.488 237.641 261.168 237.791 260.88C237.951 260.581 238.164 260.325 238.431 260.112C238.708 259.888 239.028 259.717 239.391 259.6C239.764 259.483 240.159 259.424 240.575 259.424C240.969 259.424 241.359 259.477 241.743 259.584C242.137 259.691 242.5 259.845 242.831 260.048C243.161 260.251 243.439 260.491 243.663 260.768L242.719 261.808C242.516 261.605 242.292 261.429 242.047 261.28C241.812 261.12 241.572 260.997 241.327 260.912C241.081 260.827 240.857 260.784 240.655 260.784C240.431 260.784 240.228 260.805 240.047 260.848C239.865 260.891 239.711 260.955 239.583 261.04C239.465 261.125 239.375 261.232 239.311 261.36C239.247 261.488 239.215 261.632 239.215 261.792C239.225 261.931 239.257 262.064 239.311 262.192C239.375 262.309 239.46 262.411 239.567 262.496C239.684 262.581 239.86 262.672 240.095 262.768C240.329 262.864 240.628 262.955 240.991 263.04C241.524 263.179 241.961 263.333 242.303 263.504C242.655 263.664 242.932 263.851 243.135 264.064C243.348 264.267 243.497 264.501 243.583 264.768C243.668 265.035 243.711 265.333 243.711 265.664C243.711 266.144 243.572 266.576 243.295 266.96C243.028 267.333 242.665 267.627 242.207 267.84C241.748 268.053 241.236 268.16 240.671 268.16ZM248.327 268.16C247.623 268.16 246.988 268.037 246.423 267.792C245.858 267.547 245.388 267.184 245.015 266.704L246.135 265.744C246.455 266.117 246.802 266.389 247.175 266.56C247.559 266.72 247.991 266.8 248.471 266.8C248.663 266.8 248.839 266.779 248.999 266.736C249.17 266.683 249.314 266.608 249.431 266.512C249.559 266.416 249.655 266.304 249.719 266.176C249.783 266.037 249.815 265.888 249.815 265.728C249.815 265.451 249.714 265.227 249.511 265.056C249.404 264.981 249.234 264.901 248.999 264.816C248.775 264.72 248.482 264.624 248.119 264.528C247.5 264.368 246.994 264.187 246.599 263.984C246.204 263.781 245.9 263.552 245.687 263.296C245.527 263.093 245.41 262.875 245.335 262.64C245.26 262.395 245.223 262.128 245.223 261.84C245.223 261.488 245.298 261.168 245.447 260.88C245.607 260.581 245.82 260.325 246.087 260.112C246.364 259.888 246.684 259.717 247.047 259.6C247.42 259.483 247.815 259.424 248.231 259.424C248.626 259.424 249.015 259.477 249.399 259.584C249.794 259.691 250.156 259.845 250.487 260.048C250.818 260.251 251.095 260.491 251.319 260.768L250.375 261.808C250.172 261.605 249.948 261.429 249.703 261.28C249.468 261.12 249.228 260.997 248.983 260.912C248.738 260.827 248.514 260.784 248.311 260.784C248.087 260.784 247.884 260.805 247.703 260.848C247.522 260.891 247.367 260.955 247.239 261.04C247.122 261.125 247.031 261.232 246.967 261.36C246.903 261.488 246.871 261.632 246.871 261.792C246.882 261.931 246.914 262.064 246.967 262.192C247.031 262.309 247.116 262.411 247.223 262.496C247.34 262.581 247.516 262.672 247.751 262.768C247.986 262.864 248.284 262.955 248.647 263.04C249.18 263.179 249.618 263.333 249.959 263.504C250.311 263.664 250.588 263.851 250.791 264.064C251.004 264.267 251.154 264.501 251.239 264.768C251.324 265.035 251.367 265.333 251.367 265.664C251.367 266.144 251.228 266.576 250.951 266.96C250.684 267.333 250.322 267.627 249.863 267.84C249.404 268.053 248.892 268.16 248.327 268.16ZM254.095 268V258.656C254.095 258.176 254.202 257.749 254.415 257.376C254.629 257.003 254.922 256.709 255.295 256.496C255.669 256.283 256.101 256.176 256.591 256.176C256.933 256.176 257.253 256.24 257.551 256.368C257.85 256.496 258.09 256.667 258.271 256.88L257.711 258.144C257.573 258.016 257.418 257.915 257.247 257.84C257.087 257.755 256.933 257.712 256.783 257.712C256.559 257.712 256.367 257.749 256.207 257.824C256.058 257.888 255.946 257.995 255.871 258.144C255.797 258.283 255.759 258.453 255.759 258.656V268H254.927C254.789 268 254.65 268 254.511 268C254.373 268 254.234 268 254.095 268ZM252.751 261.264V259.744H257.743V261.264H252.751ZM262.409 268.16C261.811 268.16 261.289 268.021 260.841 267.744C260.403 267.467 260.062 267.077 259.817 266.576C259.582 266.075 259.465 265.477 259.465 264.784V259.6H261.113V264.336C261.113 264.827 261.187 265.253 261.337 265.616C261.497 265.968 261.721 266.24 262.009 266.432C262.307 266.624 262.665 266.72 263.081 266.72C263.39 266.72 263.673 266.672 263.929 266.576C264.185 266.469 264.403 266.325 264.585 266.144C264.777 265.963 264.926 265.744 265.033 265.488C265.139 265.232 265.193 264.955 265.193 264.656V259.6H266.841V268H265.193V266.24L265.481 266.048C265.353 266.443 265.134 266.8 264.825 267.12C264.526 267.44 264.169 267.696 263.753 267.888C263.337 268.069 262.889 268.16 262.409 268.16ZM269.184 268V256.16H270.832V268H269.184ZM273.2 268V256.16H274.848V268H273.2ZM278.357 271.68L280.053 267.76L280.069 269.072L275.877 259.6H277.797L280.421 265.776C280.474 265.883 280.538 266.048 280.613 266.272C280.688 266.485 280.752 266.699 280.805 266.912L280.389 267.008C280.474 266.784 280.554 266.56 280.629 266.336C280.714 266.112 280.794 265.888 280.869 265.664L283.061 259.6H285.013L281.557 268L280.133 271.68H278.357Z" fill="#1E1E1E"/>
</svg>
